<?xml version="1.0" encoding="UTF-8" standalone="no"?>
<!DOCTYPE svg PUBLIC "-//W3C//DTD SVG 1.0//EN" "http://www.w3.org/TR/2001/REC-SVG-20010904/DTD/svg10.dtd">
<svg xmlns="http://www.w3.org/2000/svg" version="1.0" viewBox="0.00 0.00 1448.00 1448.00">
<g stroke-width="0.10" fill="none" stroke-linecap="butt">
<path stroke="#e68080" vector-effect="non-scaling-stroke" d="
  M 1174.50 346.27
  Q 1174.50 544.05 1174.50 741.76
  Q 1174.50 746.98 1173.57 749.50
  C 1170.74 757.25 1161.46 760.86 1154.15 757.40
  C 1150.22 755.53 1148.33 752.59 1146.15 748.83
  Q 1053.12 588.27 960.05 427.74
  C 957.32 423.03 954.44 417.70 951.32 414.19
  C 931.84 392.32 896.41 404.13 891.78 432.33
  C 890.94 437.39 891.25 444.88 891.25 449.42
  Q 891.26 595.86 891.24 742.30
  Q 891.24 747.96 889.88 750.85
  C 886.31 758.42 875.64 761.12 869.06 756.40
  Q 866.20 754.34 862.60 748.14
  Q 769.36 587.36 676.09 426.59
  Q 670.02 416.13 666.11 412.38
  C 647.34 394.39 616.20 403.50 609.50 428.24
  Q 607.98 433.88 607.98 447.40
  Q 608.01 591.11 608.00 734.81
  C 608.00 748.19 600.92 755.24 587.54 755.25
  Q 515.30 755.28 443.06 755.22
  Q 429.99 755.20 423.09 754.58
  C 357.12 748.57 300.54 703.20 280.85 639.71
  C 249.97 540.16 318.17 439.22 420.60 427.85
  Q 428.15 427.01 440.57 427.01
  Q 478.37 427.01 516.25 426.98"
/>
<path stroke="#e68080" vector-effect="non-scaling-stroke" d="
  M 516.24 406.76
  Q 479.62 406.72 443.06 406.77
  Q 430.21 406.78 423.08 407.38
  C 276.28 419.65 201.95 589.69 293.26 705.50
  C 325.32 746.16 374.09 771.86 426.27 774.79
  Q 435.13 775.29 444.00 775.32
  Q 511.33 775.53 578.65 775.47
  Q 593.74 775.45 597.67 774.66
  C 615.88 770.99 628.24 754.79 628.24 736.25
  Q 628.25 587.35 628.25 438.45
  C 628.25 426.44 640.61 418.38 650.77 425.79
  Q 653.52 427.81 656.62 433.14
  Q 750.83 595.59 845.07 758.03
  Q 849.51 765.69 853.05 769.11
  C 872.04 787.42 903.90 778.59 910.23 752.90
  Q 911.53 747.64 911.52 732.99
  Q 911.47 586.36 911.51 439.72
  Q 911.51 434.97 912.43 432.51
  C 915.83 423.41 927.10 419.99 934.73 426.21
  Q 936.93 428.00 939.83 433.00
  Q 1033.89 595.28 1127.94 757.56
  Q 1132.57 765.55 1136.19 769.07
  C 1157.85 790.10 1195.19 774.74 1194.50 744.14
  C 1194.39 739.31 1194.75 733.12 1194.75 729.66
  Q 1194.76 544.24 1194.74 358.82
  C 1194.74 355.57 1194.36 350.66 1194.82 346.30"
/>
</g>
<path fill="#cc0000" d="
  M 1174.50 346.27
  Q 1174.50 544.05 1174.50 741.76
  Q 1174.50 746.98 1173.57 749.50
  C 1170.74 757.25 1161.46 760.86 1154.15 757.40
  C 1150.22 755.53 1148.33 752.59 1146.15 748.83
  Q 1053.12 588.27 960.05 427.74
  C 957.32 423.03 954.44 417.70 951.32 414.19
  C 931.84 392.32 896.41 404.13 891.78 432.33
  C 890.94 437.39 891.25 444.88 891.25 449.42
  Q 891.26 595.86 891.24 742.30
  Q 891.24 747.96 889.88 750.85
  C 886.31 758.42 875.64 761.12 869.06 756.40
  Q 866.20 754.34 862.60 748.14
  Q 769.36 587.36 676.09 426.59
  Q 670.02 416.13 666.11 412.38
  C 647.34 394.39 616.20 403.50 609.50 428.24
  Q 607.98 433.88 607.98 447.40
  Q 608.01 591.11 608.00 734.81
  C 608.00 748.19 600.92 755.24 587.54 755.25
  Q 515.30 755.28 443.06 755.22
  Q 429.99 755.20 423.09 754.58
  C 357.12 748.57 300.54 703.20 280.85 639.71
  C 249.97 540.16 318.17 439.22 420.60 427.85
  Q 428.15 427.01 440.57 427.01
  Q 478.37 427.01 516.25 426.98
  L 516.26 486.87
  Q 516.26 487.32 515.81 487.32
  Q 479.20 487.13 442.49 487.32
  C 407.92 487.51 378.93 499.54 357.21 526.49
  C 307.03 588.76 344.29 681.20 422.87 693.59
  Q 430.20 694.74 442.81 694.75
  Q 485.60 694.75 528.38 694.76
  C 543.02 694.76 547.75 687.69 547.75 673.82
  Q 547.75 559.30 547.74 444.76
  Q 547.74 430.70 548.44 424.78
  C 557.80 345.00 659.70 315.58 710.30 377.98
  Q 714.64 383.33 721.25 394.69
  Q 775.81 488.44 830.34 582.40
  A 0.37 0.37 0.0 0 0 831.03 582.20
  C 830.43 570.22 831.02 555.80 830.94 546.27
  Q 830.50 493.63 830.90 441.00
  Q 831.00 427.84 832.10 421.07
  C 844.67 343.47 943.57 317.07 993.29 377.75
  Q 997.60 383.00 1004.25 394.44
  Q 1059.01 488.50 1113.36 582.16
  Q 1114.00 583.27 1114.00 581.99
  L 1114.00 346.77
  A 0.51 0.51 0.0 0 1 1114.51 346.26
  L 1174.50 346.27
  Z"
/>
<path fill="#cc0000" d="
  M 516.24 406.76
  Q 479.62 406.72 443.06 406.77
  Q 430.21 406.78 423.08 407.38
  C 276.28 419.65 201.95 589.69 293.26 705.50
  C 325.32 746.16 374.09 771.86 426.27 774.79
  Q 435.13 775.29 444.00 775.32
  Q 511.33 775.53 578.65 775.47
  Q 593.74 775.45 597.67 774.66
  C 615.88 770.99 628.24 754.79 628.24 736.25
  Q 628.25 587.35 628.25 438.45
  C 628.25 426.44 640.61 418.38 650.77 425.79
  Q 653.52 427.81 656.62 433.14
  Q 750.83 595.59 845.07 758.03
  Q 849.51 765.69 853.05 769.11
  C 872.04 787.42 903.90 778.59 910.23 752.90
  Q 911.53 747.64 911.52 732.99
  Q 911.47 586.36 911.51 439.72
  Q 911.51 434.97 912.43 432.51
  C 915.83 423.41 927.10 419.99 934.73 426.21
  Q 936.93 428.00 939.83 433.00
  Q 1033.89 595.28 1127.94 757.56
  Q 1132.57 765.55 1136.19 769.07
  C 1157.85 790.10 1195.19 774.74 1194.50 744.14
  C 1194.39 739.31 1194.75 733.12 1194.75 729.66
  Q 1194.76 544.24 1194.74 358.82
  C 1194.74 355.57 1194.36 350.66 1194.82 346.30
  L 1254.49 346.28
  Q 1255.01 346.28 1255.01 346.80
  Q 1254.98 543.16 1255.03 739.51
  Q 1255.03 752.45 1253.96 759.44
  Q 1248.54 794.80 1221.10 817.16
  C 1181.48 849.44 1122.78 842.53 1091.57 802.60
  Q 1087.53 797.43 1080.77 785.80
  Q 1026.59 692.56 972.39 599.27
  A 0.22 0.22 0.0 0 0 971.98 599.38
  Q 972.04 669.54 971.97 738.45
  Q 971.96 752.08 971.10 758.40
  C 966.17 794.66 939.91 824.59 904.76 834.31
  C 867.93 844.50 827.73 830.38 805.71 799.05
  Q 803.46 795.84 795.38 781.94
  Q 742.29 690.62 689.27 599.33
  A 0.29 0.28 -60.4 0 0 688.74 599.48
  Q 688.78 670.03 688.72 740.74
  C 688.68 791.10 660.49 828.63 609.02 834.92
  Q 602.85 835.67 589.06 835.69
  Q 513.94 835.83 438.81 835.71
  C 366.59 835.60 299.88 805.60 252.82 751.43
  C 154.68 638.44 180.73 463.90 306.54 384.44
  Q 365.46 347.23 436.32 346.56
  Q 476.02 346.18 515.67 346.23
  A 0.58 0.57 90.0 0 1 516.24 346.81
  L 516.24 406.76
  Z"
/>
<path fill="#ffffff" d="
  M 1174.50 346.27
  L 1194.82 346.30
  C 1194.36 350.66 1194.74 355.57 1194.74 358.82
  Q 1194.76 544.24 1194.75 729.66
  C 1194.75 733.12 1194.39 739.31 1194.50 744.14
  C 1195.19 774.74 1157.85 790.10 1136.19 769.07
  Q 1132.57 765.55 1127.94 757.56
  Q 1033.89 595.28 939.83 433.00
  Q 936.93 428.00 934.73 426.21
  C 927.10 419.99 915.83 423.41 912.43 432.51
  Q 911.51 434.97 911.51 439.72
  Q 911.47 586.36 911.52 732.99
  Q 911.53 747.64 910.23 752.90
  C 903.90 778.59 872.04 787.42 853.05 769.11
  Q 849.51 765.69 845.07 758.03
  Q 750.83 595.59 656.62 433.14
  Q 653.52 427.81 650.77 425.79
  C 640.61 418.38 628.25 426.44 628.25 438.45
  Q 628.25 587.35 628.24 736.25
  C 628.24 754.79 615.88 770.99 597.67 774.66
  Q 593.74 775.45 578.65 775.47
  Q 511.33 775.53 444.00 775.32
  Q 435.13 775.29 426.27 774.79
  C 374.09 771.86 325.32 746.16 293.26 705.50
  C 201.95 589.69 276.28 419.65 423.08 407.38
  Q 430.21 406.78 443.06 406.77
  Q 479.62 406.72 516.24 406.76
  L 516.25 426.98
  Q 478.37 427.01 440.57 427.01
  Q 428.15 427.01 420.60 427.85
  C 318.17 439.22 249.97 540.16 280.85 639.71
  C 300.54 703.20 357.12 748.57 423.09 754.58
  Q 429.99 755.20 443.06 755.22
  Q 515.30 755.28 587.54 755.25
  C 600.92 755.24 608.00 748.19 608.00 734.81
  Q 608.01 591.11 607.98 447.40
  Q 607.98 433.88 609.50 428.24
  C 616.20 403.50 647.34 394.39 666.11 412.38
  Q 670.02 416.13 676.09 426.59
  Q 769.36 587.36 862.60 748.14
  Q 866.20 754.34 869.06 756.40
  C 875.64 761.12 886.31 758.42 889.88 750.85
  Q 891.24 747.96 891.24 742.30
  Q 891.26 595.86 891.25 449.42
  C 891.25 444.88 890.94 437.39 891.78 432.33
  C 896.41 404.13 931.84 392.32 951.32 414.19
  C 954.44 417.70 957.32 423.03 960.05 427.74
  Q 1053.12 588.27 1146.15 748.83
  C 1148.33 752.59 1150.22 755.53 1154.15 757.40
  C 1161.46 760.86 1170.74 757.25 1173.57 749.50
  Q 1174.50 746.98 1174.50 741.76
  Q 1174.50 544.05 1174.50 346.27
  Z"
/>
<path fill="#cc0000" d="
  M 835.99 1026.03
  C 812.93 1020.46 796.56 1010.79 797.10 984.55
  C 797.72 954.88 826.80 946.82 851.71 946.45
  C 878.79 946.05 904.88 950.21 911.74 981.47
  A 0.58 0.58 0.0 0 1 911.25 982.17
  L 883.45 985.95
  A 0.99 0.99 0.0 0 1 882.37 985.23
  C 879.19 973.35 870.32 968.93 858.42 967.68
  C 846.56 966.44 826.53 968.30 826.33 984.63
  C 826.20 995.44 836.53 1000.01 845.77 1002.18
  Q 869.22 1007.71 878.49 1010.04
  C 890.12 1012.96 902.76 1017.99 909.66 1028.42
  C 915.87 1037.80 916.94 1050.54 914.23 1061.50
  C 906.32 1093.54 862.54 1095.32 836.75 1092.01
  C 814.24 1089.11 795.49 1078.00 790.49 1054.45
  Q 790.39 1053.98 790.87 1053.90
  L 818.92 1049.38
  Q 819.42 1049.30 819.56 1049.79
  Q 824.04 1065.89 840.42 1069.29
  C 853.03 1071.90 880.58 1073.22 885.60 1056.81
  C 890.20 1041.78 874.92 1034.93 863.51 1032.48
  Q 856.49 1030.98 835.99 1026.03
  Z"
/>
<path fill="#cc0000" d="
  M 437.53 1015.78
  Q 437.02 1016.44 437.85 1016.51
  C 454.25 1017.96 469.52 1027.39 471.83 1045.21
  Q 473.79 1060.29 465.98 1071.74
  C 454.53 1088.54 432.01 1091.17 413.61 1091.22
  Q 379.29 1091.29 344.99 1091.23
  A 0.49 0.49 0.0 0 1 344.50 1090.74
  L 344.50 949.01
  A 0.50 0.50 0.0 0 1 345.00 948.51
  Q 378.52 948.48 412.25 948.51
  C 426.28 948.52 441.63 950.84 452.93 959.56
  C 465.98 969.64 467.41 992.03 457.07 1004.67
  Q 449.97 1013.35 438.01 1015.62
  Q 437.60 1015.69 437.53 1015.78
  Z
  M 374.81 970.89
  L 374.69 1005.65
  A 0.21 0.21 0.0 0 0 374.90 1005.86
  L 414.42 1006.00
  A 19.03 15.85 0.2 0 0 433.50 990.21
  L 433.52 986.73
  A 19.03 15.85 0.2 0 0 414.54 970.82
  L 375.02 970.68
  A 0.21 0.21 0.0 0 0 374.81 970.89
  Z
  M 441.92 1048.17
  C 441.40 1032.08 428.55 1028.66 415.14 1028.27
  Q 395.19 1027.68 375.28 1028.11
  A 0.57 0.56 -1.1 0 0 374.73 1028.67
  L 374.76 1068.50
  A 0.46 0.45 -90.0 0 0 375.21 1068.96
  Q 396.51 1069.11 417.81 1068.91
  C 430.50 1068.79 442.39 1062.70 441.92 1048.17
  Z"
/>
<path fill="#cc0000" d="
  M 526.00 1037.50
  L 526.00 1090.34
  A 0.91 0.91 0.0 0 1 525.09 1091.25
  L 496.50 1091.25
  Q 495.75 1091.25 495.75 1090.50
  L 495.75 949.01
  A 0.50 0.50 0.0 0 1 496.25 948.51
  Q 532.39 948.48 568.75 948.50
  C 589.18 948.50 612.55 955.05 619.48 977.00
  C 626.92 1000.54 614.76 1024.95 590.32 1030.93
  A 0.53 0.53 0.0 0 0 590.01 1031.73
  L 628.30 1090.71
  A 0.35 0.35 0.0 0 1 628.00 1091.25
  L 595.25 1091.25
  A 0.93 0.92 74.4 0 1 594.46 1090.80
  L 561.56 1037.45
  Q 561.28 1037.00 560.76 1037.00
  L 526.50 1037.00
  Q 526.00 1037.00 526.00 1037.50
  Z
  M 525.95 972.16
  L 526.03 1013.42
  A 0.39 0.39 0.0 0 0 526.42 1013.81
  L 568.87 1013.73
  A 22.18 18.98 -0.1 0 0 591.01 994.71
  L 591.01 990.63
  A 22.18 18.98 -0.1 0 0 568.79 971.69
  L 526.34 971.77
  A 0.39 0.39 0.0 0 0 525.95 972.16
  Z"
/>
<path fill="#cc0000" d="
  M 735.67 1054.75
  L 681.46 1054.75
  A 0.49 0.49 0.0 0 0 681.00 1055.08
  L 668.44 1090.92
  A 0.49 0.49 0.0 0 1 667.98 1091.25
  L 638.91 1091.25
  A 0.49 0.49 0.0 0 1 638.45 1090.59
  L 690.61 948.82
  A 0.49 0.49 0.0 0 1 691.07 948.50
  L 725.97 948.50
  A 0.49 0.49 0.0 0 1 726.43 948.82
  L 778.40 1090.59
  A 0.49 0.49 0.0 0 1 777.94 1091.25
  L 749.16 1091.25
  A 0.49 0.49 0.0 0 1 748.70 1090.92
  L 736.13 1055.08
  A 0.49 0.49 0.0 0 0 735.67 1054.75
  Z
  M 708.37 972.10
  L 688.18 1031.68
  A 0.43 0.43 0.0 0 0 688.59 1032.25
  L 728.44 1032.25
  Q 729.13 1032.25 728.91 1031.59
  L 708.77 972.10
  Q 708.57 971.51 708.37 972.10
  Z"
/>
<rect fill="#cc0000" x="938.00" y="948.50" width="30.24" height="142.74" rx="0.62"/>
<path fill="#cc0000" d="
  M 1103.50 1068.44
  L 1103.50 1090.78
  A 0.47 0.47 0.0 0 1 1103.03 1091.25
  L 996.47 1091.25
  A 0.47 0.47 0.0 0 1 996.00 1090.78
  L 996.00 948.97
  A 0.47 0.47 0.0 0 1 996.47 948.50
  L 1025.78 948.50
  A 0.47 0.47 0.0 0 1 1026.25 948.97
  L 1026.25 1067.58
  A 0.47 0.47 0.0 0 0 1026.72 1068.05
  L 1103.03 1067.97
  A 0.47 0.47 0.0 0 1 1103.50 1068.44
  Z"
/>
</svg>
