<?xml version="1.0" encoding="UTF-8" standalone="no"?>
<!DOCTYPE svg PUBLIC "-//W3C//DTD SVG 1.0//EN" "http://www.w3.org/TR/2001/REC-SVG-20010904/DTD/svg10.dtd">
<svg xmlns="http://www.w3.org/2000/svg" version="1.0" viewBox="0.00 0.00 256.00 256.00">
<g stroke-width="0.10" fill="none" stroke-linecap="butt">
<path stroke="#bcd964" d="
  M 127.22 0.00
  Q 119.39 3.02 112.79 8.33
  A 0.92 0.90 -55.8 0 1 111.95 8.50
  L 96.90 4.01"
/>
<path stroke="#d3e264" d="
  M 130.57 0.00
  Q 130.26 1.06 130.75 1.25
  Q 138.18 4.08 143.33 8.90"
/>
<path stroke="#cfe050" d="
  M 143.33 8.90
  Q 151.55 16.25 154.72 27.66"
/>
<path stroke="#ccda46" d="
  M 154.72 27.66
  L 158.59 54.01"
/>
<path stroke="#c3d33f" d="
  M 158.59 54.01
  L 158.79 55.02"
/>
<path stroke="#b5ca43" d="
  M 158.79 55.02
  L 158.07 54.79
  A 0.98 0.97 -54.8 0 0 157.17 54.95
  L 145.76 63.81
  Q 145.49 64.02 145.15 64.00
  L 144.83 63.98"
/>
<path stroke="#b3d148" d="
  M 144.83 63.98
  Q 139.66 51.38 134.38 38.82
  C 128.46 24.74 125.04 16.29 113.15 9.58
  A 1.50 1.49 -53.5 0 0 111.32 9.86
  Q 104.18 17.41 100.85 27.67"
/>
<path stroke="#a6ce4e" d="
  M 100.85 27.67
  Q 92.70 19.74 82.39 17.35"
/>
<path stroke="#aed45b" d="
  M 82.39 17.35
  Q 82.26 17.67 81.89 16.81"
/>
<path stroke="#bcd964" d="
  M 81.89 16.81
  Q 86.50 10.83 92.87 5.10"
/>
<path stroke="#e9ed6c" d="
  M 159.63 4.04
  Q 151.00 5.35 143.33 8.90"
/>
<path stroke="#e9ed6c" d="
  M 163.24 4.96
  L 162.74 5.00
  A 0.33 0.33 0.0 0 0 162.58 5.61
  Q 168.71 9.75 173.08 15.70
  Q 173.79 16.67 174.99 16.62
  L 189.86 16.04"
/>
<path stroke="#e9ed6c" d="
  M 193.18 18.07
  Q 198.24 25.51 201.45 32.67"
/>
<path stroke="#e2e44e" d="
  M 201.45 32.67
  Q 190.55 32.30 180.98 37.49
  A 0.77 0.77 0.0 0 1 179.84 36.85
  Q 179.37 27.22 174.78 18.75
  A 2.47 2.45 -22.5 0 0 171.90 17.57
  Q 162.40 20.44 154.72 27.66"
/>
<path stroke="#b1d776" d="
  M 81.89 16.81
  C 78.00 16.46 72.02 15.49 68.31 16.79
  Q 67.83 16.95 67.39 16.72
  Q 66.74 16.39 67.05 15.58"
/>
<path stroke="#aec642" d="
  M 144.83 63.98
  Q 145.13 64.96 144.90 64.79"
/>
<path stroke="#96c047" d="
  M 144.90 64.79
  L 135.81 71.50
  Q 135.39 71.80 135.08 71.40
  Q 124.49 57.77 114.19 44.07
  Q 113.77 43.50 112.01 42.79"
/>
<path stroke="#d6e6a3" d="
  M 112.01 42.79
  Q 111.74 41.24 111.01 40.44"
/>
<path stroke="#96c047" d="
  M 111.01 40.44
  L 101.47 28.06"
/>
<path stroke="#a0ca4d" d="
  M 101.47 28.06
  Q 101.11 28.27 100.85 27.67"
/>
<path stroke="#9bcd60" d="
  M 82.39 17.35
  C 78.00 21.05 76.15 32.32 75.99 37.95"
/>
<path stroke="#90cc6d" d="
  M 75.99 37.95
  C 69.02 34.81 62.58 32.61 54.85 32.94"
/>
<path stroke="#94cf7f" d="
  M 54.85 32.94
  Q 54.72 32.87 54.59 32.79"
/>
<path stroke="#a8d688" d="
  M 54.59 32.79
  Q 57.60 25.69 62.44 18.28"
/>
<path stroke="#8abd4d" d="
  M 101.47 28.06
  Q 101.10 28.19 100.92 28.29
  Q 100.77 28.38 100.71 28.78
  Q 99.82 34.64 98.93 40.48"
/>
<path stroke="#c9e3a9" d="
  M 98.93 40.48
  L 90.90 40.50
  A 1.26 1.26 0.0 0 0 89.64 41.72
  L 89.46 47.78"
/>
<path stroke="#7cbd51" d="
  M 89.46 47.78
  L 76.42 38.24"
/>
<path stroke="#88c660" d="
  M 76.42 38.24
  Q 76.35 38.87 75.99 37.95"
/>
<path stroke="#e6e762" d="
  M 201.45 32.67
  Q 208.59 33.50 216.81 36.14"
/>
<path stroke="#e6e762" d="
  M 220.25 39.60
  L 223.50 54.61"
/>
<path stroke="#e8db4d" d="
  M 223.50 54.61
  Q 223.24 54.87 222.97 54.75"
/>
<path stroke="#ded43b" d="
  M 222.97 54.75
  C 205.79 50.13 193.85 57.19 179.19 63.43
  Q 177.97 63.95 176.74 63.99"
/>
<path stroke="#d6d73c" d="
  M 176.74 63.99
  L 179.82 39.74
  Q 180.12 37.42 178.27 38.85
  L 158.59 54.01"
/>
<path stroke="#99d29a" d="
  M 54.59 32.79
  Q 47.58 33.06 41.27 36.19
  Q 40.87 36.39 40.45 36.21
  L 39.41 35.76"
/>
<path stroke="#c0d9a3" d="
  M 111.01 40.44
  L 98.93 40.48"
/>
<path stroke="#81c87f" d="
  M 54.85 32.94
  Q 51.83 43.43 54.35 53.96"
/>
<path stroke="#77c691" d="
  M 54.35 53.96
  Q 53.57 54.38 53.00 54.27
  Q 42.99 52.29 32.83 55.03"
/>
<path stroke="#81caa7" d="
  M 32.83 55.03
  Q 33.28 55.17 32.57 54.75"
/>
<path stroke="#93d1ae" d="
  M 32.57 54.75
  Q 33.46 47.31 36.37 38.92"
/>
<path stroke="#71bc5d" d="
  M 76.42 38.24
  Q 75.78 39.83 75.95 41.01
  Q 77.62 52.22 79.02 64.38"
/>
<path stroke="#6cbf6a" d="
  M 79.02 64.38
  L 55.01 55.05"
/>
<path stroke="#73c37f" d="
  M 55.01 55.05
  Q 54.35 54.67 54.35 53.96"
/>
<path stroke="#d5cd34" d="
  M 176.74 63.99
  Q 176.43 63.96 176.66 64.40"
/>
<path stroke="#ccc938" d="
  M 176.66 64.40
  L 160.77 70.90"
/>
<path stroke="#bfc839" d="
  M 160.77 70.90
  L 158.79 55.02"
/>
<path stroke="#b2d9a7" d="
  M 89.46 47.78
  L 89.49 82.42"
/>
<path stroke="#51b15b" d="
  M 89.49 82.42
  L 81.16 81.36"
/>
<path stroke="#60b65b" d="
  M 81.16 81.36
  L 79.02 64.38"
/>
<path stroke="#8ecfc4" d="
  M 32.57 54.75
  L 18.34 62.35"
/>
<path stroke="#efe46b" d="
  M 237.58 62.20
  L 223.50 54.61"
/>
<path stroke="#c0d9a3" d="
  M 112.01 42.79
  L 112.02 65.79"
/>
<path stroke="#b2d9a7" d="
  M 112.02 65.79
  L 112.01 95.29
  A 0.37 0.37 0.0 0 0 112.59 95.59
  Q 120.27 90.32 129.45 88.58"
/>
<path stroke="#c0d9a3" d="
  M 129.45 88.58
  Q 140.02 87.20 149.48 90.16"
/>
<path stroke="#dbd79e" d="
  M 149.48 90.16
  Q 159.06 93.50 166.37 100.32"
/>
<path stroke="#ebd79b" d="
  M 166.37 100.32
  L 171.17 105.59"
/>
<path stroke="#eec59b" d="
  M 171.17 105.59
  Q 176.43 112.32 179.15 120.85"
/>
<path stroke="#efb69a" d="
  M 179.15 120.85
  Q 181.33 128.78 180.79 137.59"
/>
<path stroke="#f1a09a" d="
  M 180.79 137.59
  Q 180.33 143.89 177.93 149.94"
/>
<path stroke="#ee9a99" d="
  M 177.93 149.94
  Q 172.97 162.28 162.54 170.19"
/>
<path stroke="#ea9499" d="
  M 162.54 170.19
  L 161.26 171.12"
/>
<path stroke="#df929c" d="
  M 161.26 171.12
  L 151.17 176.47"
/>
<path stroke="#d5939e" d="
  M 151.17 176.47
  Q 144.25 178.88 138.40 179.32"
/>
<path stroke="#d393a5" d="
  M 138.40 179.32
  Q 132.15 179.78 126.75 178.68"
/>
<path stroke="#bc97ac" d="
  M 126.75 178.68
  Q 115.27 176.48 106.53 169.72"
/>
<path stroke="#a495c5" d="
  M 106.53 169.72
  Q 94.92 160.67 91.22 146.80"
/>
<path stroke="#9fa3bf" d="
  M 91.22 146.80
  Q 89.17 135.28 89.51 122.99"
/>
<path stroke="#9badb9" d="
  M 89.51 122.99
  L 89.49 113.01"
/>
<path stroke="#99b9b6" d="
  M 89.49 113.01
  L 89.49 103.54"
/>
<path stroke="#9ac8b4" d="
  M 89.49 103.54
  L 89.49 93.22"
/>
<path stroke="#9fd7b4" d="
  M 89.49 93.22
  L 89.49 82.42"
/>
<path stroke="#a9b3a5" d="
  M 130.74 110.32
  Q 114.11 113.51 111.24 130.59"
/>
<path stroke="#a7a0a7" d="
  M 111.24 130.59
  Q 110.29 146.39 122.86 154.57"
/>
<path stroke="#b3a4a2" d="
  M 122.86 154.57
  L 125.45 155.71"
/>
<path stroke="#bd9c9f" d="
  M 125.45 155.71
  L 131.60 157.38"
/>
<path stroke="#c99a9d" d="
  M 131.60 157.38
  L 139.74 157.02"
/>
<path stroke="#df929c" d="
  M 139.74 157.02
  Q 158.07 151.90 158.36 132.81"
/>
<path stroke="#dba69b" d="
  M 158.36 132.81
  Q 158.06 126.38 155.02 121.22"
/>
<path stroke="#d1b09d" d="
  M 155.02 121.22
  Q 151.56 115.64 145.71 112.71"
/>
<path stroke="#bbbc9d" d="
  M 145.71 112.71
  Q 138.42 109.10 130.74 110.32"
/>
<path stroke="#8d6c3a" d="
  M 145.71 112.71
  Q 147.31 115.53 144.31 116.30
  Q 143.83 116.42 143.49 116.78
  Q 142.52 117.83 140.74 118.24"
/>
<path stroke="#7e6e3d" d="
  M 140.74 118.24
  L 138.51 118.20
  A 0.06 0.06 0.0 0 1 138.49 118.09
  Q 138.61 118.04 138.75 118.01
  Q 139.13 117.89 138.78 117.71
  Q 135.75 116.17 133.74 118.91
  Q 133.41 119.35 132.87 119.23
  Q 131.57 118.91 131.59 119.78"
/>
<path stroke="#656f42" d="
  M 131.59 119.78
  Q 131.10 119.75 130.70 119.40
  Q 130.31 119.07 129.94 119.43
  L 129.73 119.65
  Q 129.39 119.99 129.52 119.52
  L 129.90 118.12
  Q 129.99 117.79 129.65 117.79
  L 129.34 117.79
  Q 128.78 117.80 128.99 117.28
  L 129.51 116.03
  Q 129.69 115.58 129.42 115.18
  Q 128.16 113.31 130.74 110.32"
/>
<path stroke="#6c6545" d="
  M 131.59 119.78
  L 131.00 121.30"
/>
<path stroke="#5d5847" d="
  M 131.00 121.30
  Q 129.18 121.76 128.86 123.41
  Q 128.81 123.63 128.60 123.71
  Q 128.43 123.77 128.24 123.84
  Q 128.00 123.94 128.00 123.68
  L 128.00 123.24
  Q 128.00 122.51 127.27 122.55
  Q 125.29 122.67 124.81 124.55
  A 0.67 0.66 -80.3 0 1 124.11 125.05
  L 123.32 124.99
  Q 122.76 124.95 122.79 125.51
  Q 122.84 126.65 122.22 127.96"
/>
<path stroke="#51544d" d="
  M 122.22 127.96
  Q 119.72 127.60 117.89 125.71
  A 0.47 0.47 0.0 0 0 117.08 126.00
  L 116.96 127.53
  Q 116.93 128.00 116.46 128.00
  L 112.70 128.00
  Q 112.03 128.00 111.99 128.67
  Q 111.89 130.43 111.24 130.59"
/>
<path stroke="#804e3f" d="
  M 133.94 131.97
  L 133.10 131.98"
/>
<path stroke="#765742" d="
  M 133.10 131.98
  Q 131.78 129.58 133.85 125.93
  A 0.76 0.76 0.0 0 0 133.70 124.99
  L 132.45 123.85
  Q 132.05 123.49 132.14 122.96
  Q 132.37 121.61 131.00 121.30"
/>
<path stroke="#ac5639" d="
  M 155.02 121.22
  L 154.76 121.60
  Q 154.45 122.08 154.05 121.68
  L 153.71 121.33
  Q 153.24 120.87 152.91 121.43
  L 150.18 126.07
  Q 150.02 126.35 149.69 126.31
  L 146.26 125.86
  Q 145.81 125.80 145.77 126.26
  Q 145.64 127.79 143.90 128.03
  Q 143.42 128.10 143.15 128.50
  Q 142.41 129.62 141.12 129.07
  Q 140.60 128.85 140.45 129.40
  L 139.28 133.61"
/>
<path stroke="#9a4a3b" d="
  M 139.28 133.61
  Q 138.43 133.52 137.82 132.61
  Q 137.45 132.06 137.14 132.65
  L 136.31 134.23"
/>
<path stroke="#8e4c3d" d="
  M 136.31 134.23
  Q 136.21 133.03 134.48 133.76
  Q 134.04 133.95 134.01 133.46
  L 133.94 131.97"
/>
<path stroke="#94623d" d="
  M 133.94 131.97
  Q 134.46 131.27 134.56 130.53
  Q 134.63 130.05 135.00 129.76
  Q 136.14 128.84 135.38 127.36
  Q 135.15 126.90 135.57 126.60
  C 138.29 124.64 136.81 120.66 140.74 118.24"
/>
<path stroke="#714142" d="
  M 133.10 131.98
  Q 132.13 132.43 132.06 133.07
  Q 132.01 133.49 131.74 133.83
  Q 129.90 136.21 127.02 134.77
  Q 126.52 134.52 126.52 133.97
  L 126.52 132.99
  Q 126.52 132.71 126.24 132.71
  Q 126.09 132.71 125.96 132.78
  Q 125.75 132.89 125.67 133.31
  Q 124.89 137.36 124.57 141.48
  C 124.41 143.62 123.31 145.73 123.24 148.10
  A 1.31 1.28 26.0 0 0 123.56 149.00
  Q 124.83 150.46 126.06 151.86
  Q 126.97 152.89 127.06 153.76
  Q 127.25 155.43 125.45 155.71"
/>
<path stroke="#5b454a" d="
  M 122.86 154.57
  L 124.59 154.14
  Q 125.20 153.99 124.91 153.43
  L 121.81 147.47
  Q 121.56 147.00 121.03 147.00
  L 120.47 147.00
  Q 120.00 147.00 119.59 146.77
  Q 118.01 145.87 118.36 144.35
  Q 118.51 143.72 119.10 143.98
  L 120.15 144.43
  Q 120.72 144.67 120.59 144.07
  C 120.24 142.32 120.90 140.95 120.82 139.34
  Q 120.59 134.53 122.50 130.03
  Q 122.69 129.58 122.56 129.12
  L 122.22 127.96"
/>
<path stroke="#86363d" d="
  M 136.31 134.23
  L 136.46 136.74
  Q 136.49 137.26 135.97 137.23
  Q 135.38 137.20 135.15 137.62
  Q 134.99 137.91 135.17 138.76
  Q 135.48 140.24 134.17 140.93
  Q 133.82 141.12 133.77 141.52
  L 131.60 157.38"
/>
<path stroke="#ba3938" d="
  M 158.36 132.81
  L 155.51 131.41
  Q 155.02 131.17 154.68 131.59
  Q 153.33 133.29 151.40 132.22
  Q 150.68 131.81 150.49 132.62
  Q 150.17 134.02 148.52 133.44
  A 0.48 0.48 0.0 0 0 147.88 133.87
  Q 147.79 135.62 146.25 136.11
  Q 145.75 136.27 145.75 136.79
  L 145.75 138.01
  A 0.60 0.60 0.0 0 1 145.06 138.60
  Q 144.38 138.49 143.94 139.06
  Q 143.80 139.23 143.68 139.05
  L 143.30 138.49
  A 0.12 0.12 0.0 0 0 143.10 138.48
  Q 143.02 138.59 143.05 138.79
  Q 143.05 138.83 142.66 138.87
  Q 141.76 138.96 141.73 138.11
  Q 141.71 137.63 141.30 137.39
  Q 140.43 136.89 140.02 135.50"
/>
<path stroke="#a44039" d="
  M 140.02 135.50
  Q 139.43 134.61 139.28 133.61"
/>
<path stroke="#a82d3a" d="
  M 139.74 157.02
  L 138.56 142.70
  Q 138.52 142.20 138.18 141.82
  Q 137.03 140.50 137.97 139.14
  A 0.15 0.15 0.0 0 1 138.25 139.22
  Q 138.25 139.36 138.25 139.51
  A 0.25 0.12 -60.5 0 0 138.57 139.28
  Q 138.86 137.21 140.02 135.50"
/>
<path stroke="#98b942" d="
  M 144.90 64.79
  Q 149.66 74.41 152.75 84.99"
/>
<path stroke="#9cb142" d="
  M 152.75 84.99
  Q 150.80 85.40 150.18 88.58
  Q 150.07 89.12 149.52 89.22
  Q 149.11 89.29 149.32 89.65
  Q 149.49 89.95 149.48 90.16"
/>
<path stroke="#72b34b" d="
  M 129.45 88.58
  Q 132.08 87.38 135.15 87.78
  Q 135.20 87.79 135.19 87.73
  Q 135.19 87.70 135.19 87.67
  Q 135.18 87.50 135.00 87.50
  Q 134.86 87.50 134.72 87.51
  Q 134.37 87.53 134.52 87.21
  L 134.83 86.56
  Q 135.05 86.09 134.60 85.85
  L 131.95 84.45
  Q 131.58 84.25 131.37 83.90
  C 127.07 76.50 119.15 70.02 112.02 65.79"
/>
<path stroke="#e7d145" d="
  M 222.97 54.75
  C 223.07 58.48 221.88 73.31 217.76 74.22"
/>
<path stroke="#eee599" d="
  M 217.76 74.22
  L 217.74 61.00
  A 1.26 1.25 0.0 0 0 216.48 59.75
  L 196.52 59.75
  A 1.26 1.26 0.0 0 0 195.26 61.01
  L 195.24 78.77"
/>
<path stroke="#e9c243" d="
  M 195.24 78.77
  L 191.37 79.23"
/>
<path stroke="#dabd35" d="
  M 191.37 79.23
  L 174.60 81.34"
/>
<path stroke="#d4c637" d="
  M 174.60 81.34
  L 176.66 64.40"
/>
<path stroke="#62bd7c" d="
  M 55.01 55.05
  Q 54.60 55.50 54.78 55.95
  Q 59.34 67.51 64.22 78.92"
/>
<path stroke="#55bc90" d="
  M 64.22 78.92
  Q 63.84 79.25 63.75 79.23
  Q 52.15 77.55 40.50 76.25
  Q 39.48 76.14 38.20 76.59"
/>
<path stroke="#62c0a7" d="
  M 38.20 76.59
  Q 38.29 76.22 37.95 76.10"
/>
<path stroke="#73c5a7" d="
  M 37.95 76.10
  Q 32.23 65.91 32.83 55.03"
/>
<path stroke="#6cc3bd" d="
  M 37.95 76.10
  Q 26.49 76.50 17.39 82.11"
/>
<path stroke="#7ac8cb" d="
  M 17.39 82.11
  Q 17.87 82.24 16.74 82.11"
/>
<path stroke="#8ecfce" d="
  M 16.74 82.11
  L 16.45 65.68"
/>
<path stroke="#bdc03c" d="
  M 160.77 70.90
  L 162.32 83.01"
/>
<path stroke="#b4b73d" d="
  M 162.32 83.01
  L 152.75 84.99"
/>
<path stroke="#f2c955" d="
  M 250.63 92.13
  Q 236.26 76.02 217.88 75.95"
/>
<path stroke="#f8ecab" d="
  M 217.88 75.95
  Q 217.66 75.33 217.76 74.22"
/>
<path stroke="#4db468" d="
  M 81.16 81.36
  L 64.38 79.22"
/>
<path stroke="#4eb87b" d="
  M 64.38 79.22
  Q 63.78 78.89 64.22 78.92"
/>
<path stroke="#fadda9" d="
  M 217.88 75.95
  L 217.78 87.01
  A 0.49 0.49 0.0 0 0 218.27 87.50
  L 234.73 87.50
  A 1.28 1.28 0.0 0 1 236.01 88.77
  L 236.08 104.34"
/>
<path stroke="#f7d29e" d="
  M 236.08 104.34
  L 235.65 108.64
  Q 235.59 109.19 235.04 109.20
  L 218.24 109.57
  Q 217.77 109.58 217.77 110.05
  L 217.79 122.09"
/>
<path stroke="#f3c09c" d="
  M 217.79 122.09
  Q 217.64 136.55 217.81 142.69
  Q 217.87 144.84 218.38 147.38"
/>
<path stroke="#f2a79c" d="
  M 218.38 147.38
  Q 219.54 153.29 223.90 155.47"
/>
<path stroke="#f5c7a5" d="
  M 223.90 155.47
  Q 228.51 157.83 233.56 157.15
  A 2.17 2.16 -4.1 0 1 236.01 159.26
  L 236.10 166.28"
/>
<path stroke="#f2b4a2" d="
  M 236.10 166.28
  Q 235.96 171.25 235.97 176.30
  C 235.97 178.79 235.45 179.29 233.00 179.19
  Q 222.98 178.76 216.77 176.97"
/>
<path stroke="#f1a09a" d="
  M 216.77 176.97
  Q 198.50 170.61 195.77 150.17"
/>
<path stroke="#efb69a" d="
  M 195.77 150.17
  L 195.26 129.08"
/>
<path stroke="#eec59b" d="
  M 195.26 129.08
  L 195.24 110.01
  Q 195.24 109.44 194.68 109.44
  L 181.63 109.36
  Q 181.06 109.36 180.85 108.84
  Q 180.28 107.50 180.50 106.13"
/>
<path stroke="#ebd79b" d="
  M 180.50 106.13
  L 180.50 88.68
  A 1.19 1.19 0.0 0 1 181.68 87.49
  L 188.28 87.47"
/>
<path stroke="#fadda9" d="
  M 188.28 87.47
  L 194.71 87.48
  Q 195.23 87.48 195.23 86.96
  L 195.24 78.77"
/>
<path stroke="#d0b839" d="
  M 174.60 81.34
  Q 174.27 81.00 174.32 81.41"
/>
<path stroke="#c1b83c" d="
  M 174.32 81.41
  L 162.32 83.01"
/>
<path stroke="#8ccfdc" d="
  M 16.74 82.11
  Q 9.50 87.47 8.19 89.69
  Q 6.78 92.08 4.68 94.10"
/>
<path stroke="#4ebaa6" d="
  M 38.20 76.59
  L 45.58 86.34
  Q 45.89 86.76 46.42 86.78
  L 52.90 87.02"
/>
<path stroke="#addfde" d="
  M 52.90 87.02
  Q 36.80 86.08 25.22 97.52"
/>
<path stroke="#69c3cb" d="
  M 25.22 97.52
  Q 18.97 92.04 17.39 82.11"
/>
<path stroke="#f1af48" d="
  M 256.00 126.31
  Q 254.83 126.27 254.69 125.06
  Q 254.56 123.92 254.38 123.50
  Q 248.83 110.69 236.08 104.34"
/>
<path stroke="#40b37c" d="
  M 64.38 79.22
  Q 66.20 85.02 69.15 89.31"
/>
<path stroke="#a0dbc7" d="
  M 69.15 89.31
  Q 67.29 89.03 64.69 88.06
  Q 61.87 87.01 52.90 87.02"
/>
<path stroke="#e5b545" d="
  M 188.28 87.47
  L 191.37 79.23"
/>
<path stroke="#39a069" d="
  M 89.49 93.22
  Q 82.15 93.24 75.23 94.81"
/>
<path stroke="#9fd7b4" d="
  M 75.23 94.81
  L 75.20 91.90
  Q 75.19 91.31 74.63 91.12
  L 69.15 89.31"
/>
<path stroke="#d99d37" d="
  M 180.50 106.13
  L 172.03 103.96
  Q 171.39 103.79 171.31 104.45
  L 171.17 105.59"
/>
<path stroke="#c7af3a" d="
  M 166.37 100.32
  C 168.49 99.01 168.18 95.86 168.83 93.87
  A 0.90 0.88 -80.9 0 1 169.67 93.25
  L 172.27 93.25
  Q 172.90 93.25 172.97 92.63
  L 174.32 81.41"
/>
<path stroke="#bbe3ec" d="
  M 25.22 97.52
  L 20.81 104.96"
/>
<path stroke="#67b2d1" d="
  M 20.81 104.96
  Q 20.60 103.64 19.35 104.44
  C 15.52 106.91 12.37 108.91 9.34 112.38"
/>
<path stroke="#71b3d8" d="
  M 9.34 112.38
  Q 9.48 112.79 8.58 112.76"
/>
<path stroke="#87c7e2" d="
  M 8.58 112.76
  Q 8.81 112.16 8.65 111.84
  Q 5.67 105.70 4.75 98.94
  Q 4.66 98.27 3.35 99.01"
/>
<path stroke="#9ac8b4" d="
  M 75.23 94.81
  L 75.20 106.76"
/>
<path stroke="#99b9b6" d="
  M 75.20 106.76
  C 76.49 113.96 71.42 111.31 68.02 109.94"
/>
<path stroke="#a2cdd6" d="
  M 68.02 109.94
  C 60.48 107.34 49.82 104.93 42.79 109.61"
/>
<path stroke="#abcee4" d="
  M 42.79 109.61
  C 38.42 113.68 40.35 118.59 45.82 120.12"
/>
<path stroke="#9bb8cb" d="
  M 45.82 120.12
  L 65.44 126.30"
/>
<path stroke="#9fa3bf" d="
  M 65.44 126.30
  Q 75.55 131.22 79.24 141.33"
/>
<path stroke="#a495c5" d="
  M 79.24 141.33
  Q 84.21 164.22 65.01 175.51"
/>
<path stroke="#ac9ecd" d="
  M 65.01 175.51
  Q 53.12 180.88 39.99 179.10"
/>
<path stroke="#aea8d3" d="
  M 39.99 179.10
  Q 30.05 177.96 20.70 174.19
  Q 20.22 173.99 20.01 173.52
  Q 19.35 172.05 19.89 170.06"
/>
<path stroke="#afb6db" d="
  M 19.89 170.06
  Q 19.23 161.16 20.33 152.62"
/>
<path stroke="#a6b9dd" d="
  M 20.33 152.62
  L 28.17 155.01"
/>
<path stroke="#9fa6d2" d="
  M 28.17 155.01
  C 35.23 157.85 61.24 164.64 58.16 149.14
  C 57.51 145.90 47.85 143.26 44.52 142.35"
/>
<path stroke="#a6b9dd" d="
  M 44.52 142.35
  Q 37.00 140.50 29.79 136.23
  Q 25.62 133.77 22.47 129.23"
/>
<path stroke="#b5cfeb" d="
  M 22.47 129.23
  L 20.17 124.85"
/>
<path stroke="#abcee4" d="
  M 20.17 124.85
  Q 17.30 114.11 20.81 104.96"
/>
<path stroke="#33826b" d="
  M 89.49 103.54
  Q 81.87 103.29 75.20 106.76"
/>
<path stroke="#80b3e0" d="
  M 8.58 112.76
  Q 3.49 118.74 0.90 126.06
  Q 0.78 126.41 0.44 126.54
  L 0.00 126.70"
/>
<path stroke="#346770" d="
  M 89.49 113.01
  Q 79.97 114.44 71.97 120.52"
/>
<path stroke="#357182" d="
  M 71.97 120.52
  L 64.78 110.99"
/>
<path stroke="#3b868d" d="
  M 64.78 110.99
  Q 66.49 109.83 68.02 109.94"
/>
<path stroke="#de7b36" d="
  M 195.26 129.08
  L 180.12 117.76
  Q 179.46 117.26 179.39 118.09
  L 179.15 120.85"
/>
<path stroke="#609ecf" d="
  M 20.17 124.85
  Q 13.00 120.70 9.34 112.38"
/>
<path stroke="#f1af48" d="
  M 256.00 129.19
  Q 252.33 136.88 247.42 143.51"
/>
<path stroke="#ed9944" d="
  M 247.42 143.51
  Q 247.25 143.54 246.95 143.42"
/>
<path stroke="#eb933b" d="
  M 246.95 143.42
  C 240.51 131.70 230.27 125.83 217.79 122.09"
/>
<path stroke="#3e85a2" d="
  M 64.78 110.99
  L 48.32 117.91"
/>
<path stroke="#4d9cbb" d="
  M 48.32 117.91
  L 42.47 112.68
  A 0.92 0.91 -61.9 0 1 42.20 111.77
  L 42.79 109.61"
/>
<path stroke="#4787b0" d="
  M 48.32 117.91
  Q 44.79 119.02 45.82 120.12"
/>
<path stroke="#376685" d="
  M 71.97 120.52
  Q 71.87 120.59 71.78 120.66"
/>
<path stroke="#3b5c8b" d="
  M 71.78 120.66
  Q 67.97 122.96 65.44 126.30"
/>
<path stroke="#5c89c9" d="
  M 22.47 129.23
  Q 14.52 134.37 9.13 143.62"
/>
<path stroke="#759ad1" d="
  M 9.13 143.62
  Q 3.35 137.82 0.00 129.34"
/>
<path stroke="#3a5179" d="
  M 89.51 122.99
  Q 83.98 124.26 79.17 127.81
  Q 78.77 128.11 78.43 127.74
  L 71.78 120.66"
/>
<path stroke="#e15635" d="
  M 195.77 150.17
  L 182.59 133.33
  A 0.44 0.44 0.0 0 0 181.81 133.49
  L 180.79 137.59"
/>
<path stroke="#443985" d="
  M 91.22 146.80
  Q 90.26 143.26 87.51 143.72
  Q 86.97 143.81 86.57 143.44
  Q 83.02 140.16 79.24 141.33"
/>
<path stroke="#e98842" d="
  M 246.95 143.42
  Q 239.83 151.49 229.58 154.33
  Q 229.08 154.47 228.82 154.91
  Q 228.70 155.12 228.62 155.35"
/>
<path stroke="#e66839" d="
  M 228.62 155.35
  Q 224.17 150.21 218.38 147.38"
/>
<path stroke="#3c343a" d="
  M 117.75 146.95
  L 116.91 145.58
  A 0.90 0.56 -84.4 0 0 116.00 146.76
  Q 117.66 150.92 121.65 152.99
  A 0.84 0.84 0.0 0 0 122.84 152.01
  Q 121.84 148.56 118.53 147.55
  Q 118.03 147.40 117.75 146.95"
/>
<path stroke="#4660b0" d="
  M 44.52 142.35
  Q 35.81 147.33 28.17 155.01"
/>
<path stroke="#5670b9" d="
  M 20.33 152.62
  L 8.82 144.15"
/>
<path stroke="#6784c3" d="
  M 8.82 144.15
  Q 9.05 144.17 9.13 143.62"
/>
<path stroke="#f0a44f" d="
  M 252.22 158.01
  L 247.42 143.51"
/>
<path stroke="#6f81c1" d="
  M 8.82 144.15
  Q 5.61 150.96 4.21 159.96"
/>
<path stroke="#e3543c" d="
  M 216.77 176.97
  L 218.09 180.28"
/>
<path stroke="#e34736" d="
  M 218.09 180.28
  L 191.84 177.14"
/>
<path stroke="#e03a33" d="
  M 191.84 177.14
  L 180.33 149.28
  A 0.79 0.79 0.0 0 0 178.86 149.32
  Q 178.61 150.02 177.93 149.94"
/>
<path stroke="#612d71" d="
  M 106.53 169.72
  L 103.55 171.04"
/>
<path stroke="#5c297a" d="
  M 103.55 171.04
  Q 99.68 171.84 94.81 172.81
  Q 93.68 173.04 93.71 174.26"
/>
<path stroke="#50288d" d="
  M 93.71 174.26
  L 93.47 173.56
  A 0.61 0.59 76.9 0 0 92.83 173.15
  Q 80.38 174.63 67.96 176.23
  Q 66.32 176.44 64.43 176.18"
/>
<path stroke="#513493" d="
  M 64.43 176.18
  Q 65.15 175.91 65.01 175.51"
/>
<path stroke="#e87b48" d="
  M 239.59 190.19
  Q 241.43 176.30 236.10 166.28"
/>
<path stroke="#e86e42" d="
  M 223.90 155.47
  Q 228.34 156.36 228.62 155.35"
/>
<path stroke="#5d5fae" d="
  M 19.89 170.06
  Q 19.34 169.59 19.29 169.03
  A 0.44 0.44 0.0 0 0 18.43 168.96
  L 17.11 174.33"
/>
<path stroke="#6a72b6" d="
  M 17.11 174.33
  L 5.27 163.77"
/>
<path stroke="#e14135" d="
  M 191.84 177.14
  L 201.58 201.44"
/>
<path stroke="#e03a33" d="
  M 201.58 201.44
  L 176.76 191.53"
/>
<path stroke="#d92e32" d="
  M 176.76 191.53
  L 174.48 173.25
  A 1.39 1.39 0.0 0 0 173.11 172.03
  L 165.41 171.94
  Q 164.31 171.93 164.87 170.98
  Q 165.17 170.47 164.47 170.15
  Q 164.11 169.99 163.80 170.23
  Q 163.20 170.69 162.54 170.19"
/>
<path stroke="#6965ae" d="
  M 17.11 174.33
  Q 15.59 181.52 16.72 190.91"
/>
<path stroke="#e77554" d="
  M 236.76 195.10
  L 223.46 201.41"
/>
<path stroke="#e45b3e" d="
  M 223.46 201.41
  Q 223.49 189.18 218.09 180.28"
/>
<path stroke="#5b47a1" d="
  M 39.99 179.10
  L 38.54 179.61
  Q 38.11 179.76 37.90 180.16
  Q 32.91 189.90 32.87 201.16"
/>
<path stroke="#674ba2" d="
  M 32.87 201.16
  Q 33.21 200.72 32.69 201.17"
/>
<path stroke="#6d5daa" d="
  M 32.69 201.17
  Q 26.05 199.28 20.85 194.85
  Q 20.51 194.56 20.06 194.63
  L 18.93 194.80"
/>
<path stroke="#902a51" d="
  M 126.75 178.68
  L 120.82 184.18"
/>
<path stroke="#852b51" d="
  M 120.82 184.18
  L 111.13 191.84"
/>
<path stroke="#802863" d="
  M 111.13 191.84
  Q 111.13 191.72 111.13 191.59"
/>
<path stroke="#732a61" d="
  M 111.13 191.59
  Q 106.50 181.95 103.55 171.04"
/>
<path stroke="#db3433" d="
  M 176.76 191.53
  Q 178.73 204.45 180.04 216.25
  Q 180.12 216.94 179.60 217.87"
/>
<path stroke="#d92e32" d="
  M 179.60 217.87
  L 158.80 202.18"
/>
<path stroke="#c92735" d="
  M 158.80 202.18
  L 162.58 172.95
  Q 162.64 172.52 162.33 172.21
  L 161.26 171.12"
/>
<path stroke="#7b246c" d="
  M 111.13 191.59
  L 97.51 201.99"
/>
<path stroke="#6b227b" d="
  M 97.51 201.99
  L 95.21 185.06"
/>
<path stroke="#62267d" d="
  M 95.21 185.06
  L 93.71 174.26"
/>
<path stroke="#ce2d35" d="
  M 158.80 202.18
  L 154.95 228.00"
/>
<path stroke="#bf2f43" d="
  M 154.95 228.00
  Q 154.47 228.00 154.04 227.45
  Q 146.59 218.02 139.30 208.45
  Q 138.93 207.97 138.54 208.00"
/>
<path stroke="#b32641" d="
  M 138.54 208.00
  L 138.53 206.55"
/>
<path stroke="#b5263b" d="
  M 138.53 206.55
  L 151.17 176.47"
/>
<path stroke="#5f218e" d="
  M 95.21 185.06
  L 79.04 191.63"
/>
<path stroke="#632c93" d="
  M 79.04 191.63
  L 54.61 201.60"
/>
<path stroke="#583195" d="
  M 54.61 201.60
  L 63.63 179.06
  A 1.96 1.88 -38.6 0 0 63.75 178.16
  Q 63.58 176.62 64.43 176.18"
/>
<path stroke="#65419d" d="
  M 54.61 201.60
  Q 43.83 204.19 32.87 201.16"
/>
<path stroke="#a92744" d="
  M 138.53 206.55
  Q 137.82 206.56 137.56 206.19
  Q 133.10 199.99 127.91 194.20"
/>
<path stroke="#9f2844" d="
  M 127.91 194.20
  Q 128.03 194.05 128.04 193.69"
/>
<path stroke="#a92744" d="
  M 128.04 193.69
  Q 133.93 187.03 138.40 179.32"
/>
<path stroke="#e7684e" d="
  M 223.46 201.41
  L 220.32 216.35"
/>
<path stroke="#e7684e" d="
  M 216.48 220.28
  L 201.74 223.23
  Q 201.29 223.32 201.12 223.75
  Q 198.29 230.88 193.47 237.83"
/>
<path stroke="#e7684e" d="
  M 190.06 239.76
  L 174.44 239.15"
/>
<path stroke="#dd4d3f" d="
  M 174.44 239.15
  L 174.53 237.98"
/>
<path stroke="#e14135" d="
  M 174.53 237.98
  Q 179.86 229.15 179.96 218.49"
/>
<path stroke="#e34736" d="
  M 179.96 218.49
  Q 180.70 218.47 181.12 218.68
  Q 190.02 223.11 200.11 223.18
  A 1.67 1.66 5.6 0 0 201.76 221.83
  Q 203.95 210.67 201.58 201.44"
/>
<path stroke="#9d274a" d="
  M 128.04 193.69
  L 120.82 184.18"
/>
<path stroke="#9d274a" d="
  M 127.91 194.20
  L 117.66 207.52"
/>
<path stroke="#9e2d5f" d="
  M 117.66 207.52
  Q 117.62 207.50 117.59 207.49"
/>
<path stroke="#8d255c" d="
  M 117.59 207.49
  L 111.13 191.84"
/>
<path stroke="#78207d" d="
  M 97.51 201.99
  Q 97.14 202.81 97.07 202.30"
/>
<path stroke="#7a2790" d="
  M 97.07 202.30
  L 76.78 217.77"
/>
<path stroke="#6c2891" d="
  M 76.78 217.77
  Q 76.21 216.62 76.31 215.81
  Q 77.65 204.17 79.04 191.63"
/>
<path stroke="#7e3195" d="
  M 76.78 217.77
  L 75.73 218.34"
/>
<path stroke="#823b99" d="
  M 75.73 218.34
  Q 66.12 223.53 55.57 223.34"
/>
<path stroke="#713c9a" d="
  M 55.57 223.34
  Q 55.07 222.96 54.87 222.67
  Q 54.83 222.62 54.64 221.80
  Q 52.25 211.56 54.61 201.60"
/>
<path stroke="#992a71" d="
  M 117.59 207.49
  Q 110.08 217.53 102.69 226.94
  Q 102.39 227.32 101.29 228.00"
/>
<path stroke="#8a2981" d="
  M 101.29 228.00
  L 97.07 202.30"
/>
<path stroke="#e03a33" d="
  M 179.96 218.49
  Q 179.98 217.71 179.60 217.87"
/>
<path stroke="#b32f4c" d="
  M 138.54 208.00
  L 128.17 232.12"
/>
<path stroke="#a92c5f" d="
  M 128.17 232.12
  L 117.66 207.52"
/>
<path stroke="#7757a6" d="
  M 32.69 201.17
  Q 33.54 208.87 36.28 217.04"
/>
<path stroke="#83459d" d="
  M 55.57 223.34
  Q 55.30 223.29 54.77 223.69"
/>
<path stroke="#9056a5" d="
  M 54.77 223.69
  L 39.20 219.92"
/>
<path stroke="#9b3184" d="
  M 101.29 228.00
  Q 101.21 228.55 101.09 228.56"
/>
<path stroke="#9c3997" d="
  M 101.09 228.56
  Q 92.97 236.31 82.83 238.77"
/>
<path stroke="#903a98" d="
  M 82.83 238.77
  C 78.49 235.88 76.46 224.08 76.23 219.26
  Q 76.22 219.02 75.73 218.34"
/>
<path stroke="#da403c" d="
  M 174.53 237.98
  L 173.60 238.47
  Q 173.18 238.70 172.72 238.56
  Q 162.81 235.69 154.96 228.35"
/>
<path stroke="#ce3640" d="
  M 154.96 228.35
  Q 155.12 228.70 154.95 228.00"
/>
<path stroke="#b53560" d="
  M 128.17 232.12
  Q 128.22 232.78 128.41 232.37"
/>
<path stroke="#b33b74" d="
  M 128.41 232.37
  Q 127.66 232.59 127.54 232.80
  Q 121.98 241.88 112.55 246.99"
/>
<path stroke="#ab3a87" d="
  M 112.55 246.99
  C 106.70 241.55 103.86 236.17 101.09 228.56"
/>
<path stroke="#cb4249" d="
  M 154.96 228.35
  Q 152.13 239.17 143.65 247.04"
/>
<path stroke="#cc555f" d="
  M 143.65 247.04
  Q 143.76 246.99 143.87 246.94"
/>
<path stroke="#bd3f61" d="
  M 143.87 246.94
  Q 134.06 241.69 128.41 232.37"
/>
<path stroke="#a0439b" d="
  M 82.83 238.77
  Q 81.56 239.20 82.20 239.23"
/>
<path stroke="#a255a3" d="
  M 82.20 239.23
  L 65.87 239.66"
/>
<path stroke="#a255a3" d="
  M 62.40 237.66
  L 54.77 223.69"
/>
<path stroke="#e06754" d="
  M 174.44 239.15
  L 164.13 250.59"
/>
<path stroke="#d85f5b" d="
  M 159.66 251.88
  Q 151.00 250.33 143.65 247.04"
/>
<path stroke="#b44487" d="
  M 112.55 246.99
  Q 112.58 247.04 112.62 247.09"
/>
<path stroke="#b5529a" d="
  M 112.62 247.09
  Q 105.45 250.50 96.39 251.87"
/>
<path stroke="#ae54a3" d="
  M 91.49 250.58
  Q 91.86 250.40 92.03 250.17
  Q 92.31 249.76 91.92 249.45
  Q 86.24 244.94 82.20 239.23"
/>
<path stroke="#ca5b72" d="
  M 143.87 246.94
  Q 139.05 251.50 133.22 254.00
  C 131.72 254.65 129.36 254.42 128.37 256.00"
/>
<path stroke="#bc5487" d="
  M 126.20 256.00
  C 126.23 255.35 125.92 254.90 125.28 254.67
  Q 118.00 252.07 112.62 247.09"
/>
</g>
<path fill="#bedc7f" d="
  M 122.84 0.00
  L 127.22 0.00
  Q 119.39 3.02 112.79 8.33
  A 0.92 0.90 -55.8 0 1 111.95 8.50
  L 96.90 4.01
  Q 110.29 0.59 122.84 0.00
  Z"
/>
<path fill="#b9d548" d="
  M 127.22 0.00
  L 130.57 0.00
  Q 130.26 1.06 130.75 1.25
  Q 138.18 4.08 143.33 8.90
  Q 151.55 16.25 154.72 27.66
  L 158.59 54.01
  L 158.79 55.02
  L 158.07 54.79
  A 0.98 0.97 -54.8 0 0 157.17 54.95
  L 145.76 63.81
  Q 145.49 64.02 145.15 64.00
  L 144.83 63.98
  Q 139.66 51.38 134.38 38.82
  C 128.46 24.74 125.04 16.29 113.15 9.58
  A 1.50 1.49 -53.5 0 0 111.32 9.86
  Q 104.18 17.41 100.85 27.67
  Q 92.70 19.74 82.39 17.35
  Q 82.26 17.67 81.89 16.81
  Q 86.50 10.83 92.87 5.10
  L 96.90 4.01
  L 111.95 8.50
  A 0.92 0.90 -55.8 0 0 112.79 8.33
  Q 119.39 3.02 127.22 0.00
  Z"
/>
<path fill="#edef80" d="
  M 130.57 0.00
  L 133.55 0.00
  Q 146.67 0.79 159.63 4.04
  Q 151.00 5.35 143.33 8.90
  Q 138.18 4.08 130.75 1.25
  Q 130.26 1.06 130.57 0.00
  Z"
/>
<path fill="#e5ea58" d="
  M 159.63 4.04
  L 163.24 4.96
  L 162.74 5.00
  A 0.33 0.33 0.0 0 0 162.58 5.61
  Q 168.71 9.75 173.08 15.70
  Q 173.79 16.67 174.99 16.62
  L 189.86 16.04
  L 193.18 18.07
  Q 198.24 25.51 201.45 32.67
  Q 190.55 32.30 180.98 37.49
  A 0.77 0.77 0.0 0 1 179.84 36.85
  Q 179.37 27.22 174.78 18.75
  A 2.47 2.45 -22.5 0 0 171.90 17.57
  Q 162.40 20.44 154.72 27.66
  Q 151.55 16.25 143.33 8.90
  Q 151.00 5.35 159.63 4.04
  Z"
/>
<path fill="#edef80" d="
  M 163.24 4.96
  Q 177.06 8.93 189.86 16.04
  L 174.99 16.62
  Q 173.79 16.67 173.08 15.70
  Q 168.71 9.75 162.58 5.61
  A 0.33 0.33 0.0 0 1 162.74 5.00
  L 163.24 4.96
  Z"
/>
<path fill="#bedc7f" d="
  M 92.87 5.10
  Q 86.50 10.83 81.89 16.81
  C 78.00 16.46 72.02 15.49 68.31 16.79
  Q 67.83 16.95 67.39 16.72
  Q 66.74 16.39 67.05 15.58
  Q 78.86 8.91 92.87 5.10
  Z"
/>
<path fill="#accd47" d="
  M 144.83 63.98
  Q 145.13 64.96 144.90 64.79
  L 135.81 71.50
  Q 135.39 71.80 135.08 71.40
  Q 124.49 57.77 114.19 44.07
  Q 113.77 43.50 112.01 42.79
  Q 111.74 41.24 111.01 40.44
  L 101.47 28.06
  Q 101.11 28.27 100.85 27.67
  Q 104.18 17.41 111.32 9.86
  A 1.50 1.49 -53.5 0 1 113.15 9.58
  C 125.04 16.29 128.46 24.74 134.38 38.82
  Q 139.66 51.38 144.83 63.98
  Z"
/>
<path fill="#a3d26d" d="
  M 67.05 15.58
  Q 66.74 16.39 67.39 16.72
  Q 67.83 16.95 68.31 16.79
  C 72.02 15.49 78.00 16.46 81.89 16.81
  Q 82.26 17.67 82.39 17.35
  C 78.00 21.05 76.15 32.32 75.99 37.95
  C 69.02 34.81 62.58 32.61 54.85 32.94
  Q 54.72 32.87 54.59 32.79
  Q 57.60 25.69 62.44 18.28
  L 67.05 15.58
  Z"
/>
<path fill="#93c753" d="
  M 82.39 17.35
  Q 92.70 19.74 100.85 27.67
  Q 101.11 28.27 101.47 28.06
  Q 101.10 28.19 100.92 28.29
  Q 100.77 28.38 100.71 28.78
  Q 99.82 34.64 98.93 40.48
  L 90.90 40.50
  A 1.26 1.26 0.0 0 0 89.64 41.72
  L 89.46 47.78
  L 76.42 38.24
  Q 76.35 38.87 75.99 37.95
  C 76.15 32.32 78.00 21.05 82.39 17.35
  Z"
/>
<path fill="#dfde43" d="
  M 201.45 32.67
  Q 208.59 33.50 216.81 36.14
  L 220.25 39.60
  L 223.50 54.61
  Q 223.24 54.87 222.97 54.75
  C 205.79 50.13 193.85 57.19 179.19 63.43
  Q 177.97 63.95 176.74 63.99
  L 179.82 39.74
  Q 180.12 37.42 178.27 38.85
  L 158.59 54.01
  L 154.72 27.66
  Q 162.40 20.44 171.90 17.57
  A 2.47 2.45 -22.5 0 1 174.78 18.75
  Q 179.37 27.22 179.84 36.85
  A 0.77 0.77 0.0 0 0 180.98 37.49
  Q 190.55 32.30 201.45 32.67
  Z"
/>
<path fill="#edef80" d="
  M 193.18 18.07
  Q 206.14 25.37 216.81 36.14
  Q 208.59 33.50 201.45 32.67
  Q 198.24 25.51 193.18 18.07
  Z"
/>
<path fill="#acd9a3" d="
  M 62.44 18.28
  Q 57.60 25.69 54.59 32.79
  Q 47.58 33.06 41.27 36.19
  Q 40.87 36.39 40.45 36.21
  L 39.41 35.76
  Q 49.45 25.83 62.44 18.28
  Z"
/>
<path fill="#80b347" d="
  M 101.47 28.06
  L 111.01 40.44
  L 98.93 40.48
  Q 99.82 34.64 100.71 28.78
  Q 100.77 28.38 100.92 28.29
  Q 101.10 28.19 101.47 28.06
  Z"
/>
<path fill="#85cb91" d="
  M 54.59 32.79
  Q 54.72 32.87 54.85 32.94
  Q 51.83 43.43 54.35 53.96
  Q 53.57 54.38 53.00 54.27
  Q 42.99 52.29 32.83 55.03
  Q 33.28 55.17 32.57 54.75
  Q 33.46 47.31 36.37 38.92
  L 39.41 35.76
  L 40.45 36.21
  Q 40.87 36.39 41.27 36.19
  Q 47.58 33.06 54.59 32.79
  Z"
/>
<path fill="#7dc56c" d="
  M 75.99 37.95
  Q 76.35 38.87 76.42 38.24
  Q 75.78 39.83 75.95 41.01
  Q 77.62 52.22 79.02 64.38
  L 55.01 55.05
  Q 54.35 54.67 54.35 53.96
  Q 51.83 43.43 54.85 32.94
  C 62.58 32.61 69.02 34.81 75.99 37.95
  Z"
/>
<path fill="#cdd035" d="
  M 176.74 63.99
  Q 176.43 63.96 176.66 64.40
  L 160.77 70.90
  L 158.79 55.02
  L 158.59 54.01
  L 178.27 38.85
  Q 180.12 37.42 179.82 39.74
  L 176.74 63.99
  Z"
/>
<path fill="#64b24e" d="
  M 76.42 38.24
  L 89.46 47.78
  L 89.49 82.42
  L 81.16 81.36
  L 79.02 64.38
  Q 77.62 52.22 75.95 41.01
  Q 75.78 39.83 76.42 38.24
  Z"
/>
<path fill="#a0d6ca" d="
  M 36.37 38.92
  Q 33.46 47.31 32.57 54.75
  L 18.34 62.35
  Q 25.67 49.38 36.37 38.92
  Z"
/>
<path fill="#edef80" d="
  M 220.25 39.60
  Q 230.69 50.06 237.58 62.20
  L 223.50 54.61
  L 220.25 39.60
  Z"
/>
<path fill="#ffffff" d="
  M 98.93 40.48
  L 111.01 40.44
  Q 111.74 41.24 112.01 42.79
  L 112.02 65.79
  L 112.01 95.29
  A 0.37 0.37 0.0 0 0 112.59 95.59
  Q 120.27 90.32 129.45 88.58
  Q 140.02 87.20 149.48 90.16
  Q 159.06 93.50 166.37 100.32
  L 171.17 105.59
  Q 176.43 112.32 179.15 120.85
  Q 181.33 128.78 180.79 137.59
  Q 180.33 143.89 177.93 149.94
  Q 172.97 162.28 162.54 170.19
  L 161.26 171.12
  L 151.17 176.47
  Q 144.25 178.88 138.40 179.32
  Q 132.15 179.78 126.75 178.68
  Q 115.27 176.48 106.53 169.72
  Q 94.92 160.67 91.22 146.80
  Q 89.17 135.28 89.51 122.99
  L 89.49 113.01
  L 89.49 103.54
  L 89.49 93.22
  L 89.49 82.42
  L 89.46 47.78
  L 89.64 41.72
  A 1.26 1.26 0.0 0 1 90.90 40.50
  L 98.93 40.48
  Z
  M 130.74 110.32
  Q 114.11 113.51 111.24 130.59
  Q 110.29 146.39 122.86 154.57
  L 125.45 155.71
  L 131.60 157.38
  L 139.74 157.02
  Q 158.07 151.90 158.36 132.81
  Q 158.06 126.38 155.02 121.22
  Q 151.56 115.64 145.71 112.71
  Q 138.42 109.10 130.74 110.32
  Z"
/>
<path fill="#80b347" d="
  M 112.01 42.79
  Q 113.77 43.50 114.19 44.07
  Q 124.49 57.77 135.08 71.40
  Q 135.39 71.80 135.81 71.50
  L 144.90 64.79
  Q 149.66 74.41 152.75 84.99
  Q 150.80 85.40 150.18 88.58
  Q 150.07 89.12 149.52 89.22
  Q 149.11 89.29 149.32 89.65
  Q 149.49 89.95 149.48 90.16
  Q 140.02 87.20 129.45 88.58
  Q 132.08 87.38 135.15 87.78
  Q 135.20 87.79 135.19 87.73
  Q 135.19 87.70 135.19 87.67
  Q 135.18 87.50 135.00 87.50
  Q 134.86 87.50 134.72 87.51
  Q 134.37 87.53 134.52 87.21
  L 134.83 86.56
  Q 135.05 86.09 134.60 85.85
  L 131.95 84.45
  Q 131.58 84.25 131.37 83.90
  C 127.07 76.50 119.15 70.02 112.02 65.79
  L 112.01 42.79
  Z"
/>
<path fill="#ddca33" d="
  M 222.97 54.75
  C 223.07 58.48 221.88 73.31 217.76 74.22
  L 217.74 61.00
  A 1.26 1.25 0.0 0 0 216.48 59.75
  L 196.52 59.75
  A 1.26 1.26 0.0 0 0 195.26 61.01
  L 195.24 78.77
  L 191.37 79.23
  L 174.60 81.34
  L 176.66 64.40
  Q 176.43 63.96 176.74 63.99
  Q 177.97 63.95 179.19 63.43
  C 193.85 57.19 205.79 50.13 222.97 54.75
  Z"
/>
<path fill="#69c191" d="
  M 54.35 53.96
  Q 54.35 54.67 55.01 55.05
  Q 54.60 55.50 54.78 55.95
  Q 59.34 67.51 64.22 78.92
  Q 63.84 79.25 63.75 79.23
  Q 52.15 77.55 40.50 76.25
  Q 39.48 76.14 38.20 76.59
  Q 38.29 76.22 37.95 76.10
  Q 32.23 65.91 32.83 55.03
  Q 42.99 52.29 53.00 54.27
  Q 53.57 54.38 54.35 53.96
  Z"
/>
<path fill="#7cc8bd" d="
  M 32.57 54.75
  Q 33.28 55.17 32.83 55.03
  Q 32.23 65.91 37.95 76.10
  Q 26.49 76.50 17.39 82.11
  Q 17.87 82.24 16.74 82.11
  L 16.45 65.68
  Q 16.84 64.14 18.34 62.35
  L 32.57 54.75
  Z"
/>
<path fill="#b0bf3d" d="
  M 158.79 55.02
  L 160.77 70.90
  L 162.32 83.01
  L 152.75 84.99
  Q 149.66 74.41 144.90 64.79
  Q 145.13 64.96 144.83 63.98
  L 145.15 64.00
  Q 145.49 64.02 145.76 63.81
  L 157.17 54.95
  A 0.98 0.97 -54.8 0 1 158.07 54.79
  L 158.79 55.02
  Z"
/>
<path fill="#f0d856" d="
  M 222.97 54.75
  Q 223.24 54.87 223.50 54.61
  L 237.58 62.20
  Q 245.88 75.04 250.63 92.13
  Q 236.26 76.02 217.88 75.95
  Q 217.66 75.33 217.76 74.22
  C 221.88 73.31 223.07 58.48 222.97 54.75
  Z"
/>
<path fill="#5bb967" d="
  M 55.01 55.05
  L 79.02 64.38
  L 81.16 81.36
  L 64.38 79.22
  Q 63.78 78.89 64.22 78.92
  Q 59.34 67.51 54.78 55.95
  Q 54.60 55.50 55.01 55.05
  Z"
/>
<path fill="#ffffff" d="
  M 217.76 74.22
  Q 217.66 75.33 217.88 75.95
  L 217.78 87.01
  A 0.49 0.49 0.0 0 0 218.27 87.50
  L 234.73 87.50
  A 1.28 1.28 0.0 0 1 236.01 88.77
  L 236.08 104.34
  L 235.65 108.64
  Q 235.59 109.19 235.04 109.20
  L 218.24 109.57
  Q 217.77 109.58 217.77 110.05
  L 217.79 122.09
  Q 217.64 136.55 217.81 142.69
  Q 217.87 144.84 218.38 147.38
  Q 219.54 153.29 223.90 155.47
  Q 228.51 157.83 233.56 157.15
  A 2.17 2.16 -4.1 0 1 236.01 159.26
  L 236.10 166.28
  Q 235.96 171.25 235.97 176.30
  C 235.97 178.79 235.45 179.29 233.00 179.19
  Q 222.98 178.76 216.77 176.97
  Q 198.50 170.61 195.77 150.17
  L 195.26 129.08
  L 195.24 110.01
  Q 195.24 109.44 194.68 109.44
  L 181.63 109.36
  Q 181.06 109.36 180.85 108.84
  Q 180.28 107.50 180.50 106.13
  L 180.50 88.68
  A 1.19 1.19 0.0 0 1 181.68 87.49
  L 188.28 87.47
  L 194.71 87.48
  Q 195.23 87.48 195.23 86.96
  L 195.24 78.77
  L 195.26 61.01
  A 1.26 1.26 0.0 0 1 196.52 59.75
  L 216.48 59.75
  A 1.26 1.25 -0.0 0 1 217.74 61.00
  L 217.76 74.22
  Z"
/>
<path fill="#cac13a" d="
  M 176.66 64.40
  L 174.60 81.34
  Q 174.27 81.00 174.32 81.41
  L 162.32 83.01
  L 160.77 70.90
  L 176.66 64.40
  Z"
/>
<path fill="#64b24e" d="
  M 112.02 65.79
  C 119.15 70.02 127.07 76.50 131.37 83.90
  Q 131.58 84.25 131.95 84.45
  L 134.60 85.85
  Q 135.05 86.09 134.83 86.56
  L 134.52 87.21
  Q 134.37 87.53 134.72 87.51
  Q 134.86 87.50 135.00 87.50
  Q 135.18 87.50 135.19 87.67
  Q 135.19 87.70 135.19 87.73
  Q 135.20 87.79 135.15 87.78
  Q 132.08 87.38 129.45 88.58
  Q 120.27 90.32 112.59 95.59
  A 0.37 0.37 0.0 0 1 112.01 95.29
  L 112.02 65.79
  Z"
/>
<path fill="#a0d6df" d="
  M 16.45 65.68
  L 16.74 82.11
  Q 9.50 87.47 8.19 89.69
  Q 6.78 92.08 4.68 94.10
  Q 8.29 79.60 16.45 65.68
  Z"
/>
<path fill="#5bbebd" d="
  M 37.95 76.10
  Q 38.29 76.22 38.20 76.59
  L 45.58 86.34
  Q 45.89 86.76 46.42 86.78
  L 52.90 87.02
  Q 36.80 86.08 25.22 97.52
  Q 18.97 92.04 17.39 82.11
  Q 26.49 76.50 37.95 76.10
  Z"
/>
<path fill="#f4ba53" d="
  M 217.88 75.95
  Q 236.26 76.02 250.63 92.13
  Q 255.05 105.80 256.00 122.84
  L 256.00 126.31
  Q 254.83 126.27 254.69 125.06
  Q 254.56 123.92 254.38 123.50
  Q 248.83 110.69 236.08 104.34
  L 236.01 88.77
  A 1.28 1.28 0.0 0 0 234.73 87.50
  L 218.27 87.50
  A 0.49 0.49 0.0 0 1 217.78 87.01
  L 217.88 75.95
  Z"
/>
<path fill="#41b68f" d="
  M 64.22 78.92
  Q 63.78 78.89 64.38 79.22
  Q 66.20 85.02 69.15 89.31
  Q 67.29 89.03 64.69 88.06
  Q 61.87 87.01 52.90 87.02
  L 46.42 86.78
  Q 45.89 86.76 45.58 86.34
  L 38.20 76.59
  Q 39.48 76.14 40.50 76.25
  Q 52.15 77.55 63.75 79.23
  Q 63.84 79.25 64.22 78.92
  Z"
/>
<path fill="#f4ba53" d="
  M 195.24 78.77
  L 195.23 86.96
  Q 195.23 87.48 194.71 87.48
  L 188.28 87.47
  L 191.37 79.23
  L 195.24 78.77
  Z"
/>
<path fill="#3eaf68" d="
  M 64.38 79.22
  L 81.16 81.36
  L 89.49 82.42
  L 89.49 93.22
  Q 82.15 93.24 75.23 94.81
  L 75.20 91.90
  Q 75.19 91.31 74.63 91.12
  L 69.15 89.31
  Q 66.20 85.02 64.38 79.22
  Z"
/>
<path fill="#d6af37" d="
  M 191.37 79.23
  L 188.28 87.47
  L 181.68 87.49
  A 1.19 1.19 0.0 0 0 180.50 88.68
  L 180.50 106.13
  L 172.03 103.96
  Q 171.39 103.79 171.31 104.45
  L 171.17 105.59
  L 166.37 100.32
  C 168.49 99.01 168.18 95.86 168.83 93.87
  A 0.90 0.88 -80.9 0 1 169.67 93.25
  L 172.27 93.25
  Q 172.90 93.25 172.97 92.63
  L 174.32 81.41
  Q 174.27 81.00 174.60 81.34
  L 191.37 79.23
  Z"
/>
<path fill="#b7ae3d" d="
  M 174.32 81.41
  L 172.97 92.63
  Q 172.90 93.25 172.27 93.25
  L 169.67 93.25
  A 0.90 0.88 -80.9 0 0 168.83 93.87
  C 168.18 95.86 168.49 99.01 166.37 100.32
  Q 159.06 93.50 149.48 90.16
  Q 149.49 89.95 149.32 89.65
  Q 149.11 89.29 149.52 89.22
  Q 150.07 89.12 150.18 88.58
  Q 150.80 85.40 152.75 84.99
  L 162.32 83.01
  L 174.32 81.41
  Z"
/>
<path fill="#77c7d9" d="
  M 16.74 82.11
  Q 17.87 82.24 17.39 82.11
  Q 18.97 92.04 25.22 97.52
  L 20.81 104.96
  Q 20.60 103.64 19.35 104.44
  C 15.52 106.91 12.37 108.91 9.34 112.38
  Q 9.48 112.79 8.58 112.76
  Q 8.81 112.16 8.65 111.84
  Q 5.67 105.70 4.75 98.94
  Q 4.66 98.27 3.35 99.01
  L 4.68 94.10
  Q 6.78 92.08 8.19 89.69
  Q 9.50 87.47 16.74 82.11
  Z"
/>
<path fill="#ffffff" d="
  M 52.90 87.02
  Q 61.87 87.01 64.69 88.06
  Q 67.29 89.03 69.15 89.31
  L 74.63 91.12
  Q 75.19 91.31 75.20 91.90
  L 75.23 94.81
  L 75.20 106.76
  C 76.49 113.96 71.42 111.31 68.02 109.94
  C 60.48 107.34 49.82 104.93 42.79 109.61
  C 38.42 113.68 40.35 118.59 45.82 120.12
  L 65.44 126.30
  Q 75.55 131.22 79.24 141.33
  Q 84.21 164.22 65.01 175.51
  Q 53.12 180.88 39.99 179.10
  Q 30.05 177.96 20.70 174.19
  Q 20.22 173.99 20.01 173.52
  Q 19.35 172.05 19.89 170.06
  Q 19.23 161.16 20.33 152.62
  L 28.17 155.01
  C 35.23 157.85 61.24 164.64 58.16 149.14
  C 57.51 145.90 47.85 143.26 44.52 142.35
  Q 37.00 140.50 29.79 136.23
  Q 25.62 133.77 22.47 129.23
  L 20.17 124.85
  Q 17.30 114.11 20.81 104.96
  L 25.22 97.52
  Q 36.80 86.08 52.90 87.02
  Z"
/>
<path fill="#349169" d="
  M 89.49 93.22
  L 89.49 103.54
  Q 81.87 103.29 75.20 106.76
  L 75.23 94.81
  Q 82.15 93.24 89.49 93.22
  Z"
/>
<path fill="#96c7ea" d="
  M 8.58 112.76
  Q 3.49 118.74 0.90 126.06
  Q 0.78 126.41 0.44 126.54
  L 0.00 126.70
  L 0.00 122.45
  Q 0.78 110.45 3.35 99.01
  Q 4.66 98.27 4.75 98.94
  Q 5.67 105.70 8.65 111.84
  Q 8.81 112.16 8.58 112.76
  Z"
/>
<path fill="#32726d" d="
  M 89.49 103.54
  L 89.49 113.01
  Q 79.97 114.44 71.97 120.52
  L 64.78 110.99
  Q 66.49 109.83 68.02 109.94
  C 71.42 111.31 76.49 113.96 75.20 106.76
  Q 81.87 103.29 89.49 103.54
  Z"
/>
<path fill="#dc8a36" d="
  M 180.50 106.13
  Q 180.28 107.50 180.85 108.84
  Q 181.06 109.36 181.63 109.36
  L 194.68 109.44
  Q 195.24 109.44 195.24 110.01
  L 195.26 129.08
  L 180.12 117.76
  Q 179.46 117.26 179.39 118.09
  L 179.15 120.85
  Q 176.43 112.32 171.17 105.59
  L 171.31 104.45
  Q 171.39 103.79 172.03 103.96
  L 180.50 106.13
  Z"
/>
<path fill="#569dc8" d="
  M 20.81 104.96
  Q 17.30 114.11 20.17 124.85
  Q 13.00 120.70 9.34 112.38
  C 12.37 108.91 15.52 106.91 19.35 104.44
  Q 20.60 103.64 20.81 104.96
  Z"
/>
<path fill="#eea43d" d="
  M 256.00 126.31
  L 256.00 129.19
  Q 252.33 136.88 247.42 143.51
  Q 247.25 143.54 246.95 143.42
  C 240.51 131.70 230.27 125.83 217.79 122.09
  L 217.77 110.05
  Q 217.77 109.58 218.24 109.57
  L 235.04 109.20
  Q 235.59 109.19 235.65 108.64
  L 236.08 104.34
  Q 248.83 110.69 254.38 123.50
  Q 254.56 123.92 254.69 125.06
  Q 254.83 126.27 256.00 126.31
  Z"
/>
<path fill="#449aad" d="
  M 68.02 109.94
  Q 66.49 109.83 64.78 110.99
  L 48.32 117.91
  L 42.47 112.68
  A 0.92 0.91 -61.9 0 1 42.20 111.77
  L 42.79 109.61
  C 49.82 104.93 60.48 107.34 68.02 109.94
  Z"
/>
<path fill="#569dc8" d="
  M 42.79 109.61
  L 42.20 111.77
  A 0.92 0.91 -61.9 0 0 42.47 112.68
  L 48.32 117.91
  Q 44.79 119.02 45.82 120.12
  C 40.35 118.59 38.42 113.68 42.79 109.61
  Z"
/>
<path fill="#77783a" d="
  M 145.71 112.71
  Q 147.31 115.53 144.31 116.30
  Q 143.83 116.42 143.49 116.78
  Q 142.52 117.83 140.74 118.24
  L 138.51 118.20
  A 0.06 0.06 0.0 0 1 138.49 118.09
  Q 138.61 118.04 138.75 118.01
  Q 139.13 117.89 138.78 117.71
  Q 135.75 116.17 133.74 118.91
  Q 133.41 119.35 132.87 119.23
  Q 131.57 118.91 131.59 119.78
  Q 131.10 119.75 130.70 119.40
  Q 130.31 119.07 129.94 119.43
  L 129.73 119.65
  Q 129.39 119.99 129.52 119.52
  L 129.90 118.12
  Q 129.99 117.79 129.65 117.79
  L 129.34 117.79
  Q 128.78 117.80 128.99 117.28
  L 129.51 116.03
  Q 129.69 115.58 129.42 115.18
  Q 128.16 113.31 130.74 110.32
  Q 138.42 109.10 145.71 112.71
  Z"
/>
<path fill="#52664a" d="
  M 130.74 110.32
  Q 128.16 113.31 129.42 115.18
  Q 129.69 115.58 129.51 116.03
  L 128.99 117.28
  Q 128.78 117.80 129.34 117.79
  L 129.65 117.79
  Q 129.99 117.79 129.90 118.12
  L 129.52 119.52
  Q 129.39 119.99 129.73 119.65
  L 129.94 119.43
  Q 130.31 119.07 130.70 119.40
  Q 131.10 119.75 131.59 119.78
  L 131.00 121.30
  Q 129.18 121.76 128.86 123.41
  Q 128.81 123.63 128.60 123.71
  Q 128.43 123.77 128.24 123.84
  Q 128.00 123.94 128.00 123.68
  L 128.00 123.24
  Q 128.00 122.51 127.27 122.55
  Q 125.29 122.67 124.81 124.55
  A 0.67 0.66 -80.3 0 1 124.11 125.05
  L 123.32 124.99
  Q 122.76 124.95 122.79 125.51
  Q 122.84 126.65 122.22 127.96
  Q 119.72 127.60 117.89 125.71
  A 0.47 0.47 0.0 0 0 117.08 126.00
  L 116.96 127.53
  Q 116.93 128.00 116.46 128.00
  L 112.70 128.00
  Q 112.03 128.00 111.99 128.67
  Q 111.89 130.43 111.24 130.59
  Q 114.11 113.51 130.74 110.32
  Z"
/>
<path fill="#377097" d="
  M 64.78 110.99
  L 71.97 120.52
  Q 71.87 120.59 71.78 120.66
  Q 67.97 122.96 65.44 126.30
  L 45.82 120.12
  Q 44.79 119.02 48.32 117.91
  L 64.78 110.99
  Z"
/>
<path fill="#6a9ed6" d="
  M 9.34 112.38
  Q 13.00 120.70 20.17 124.85
  L 22.47 129.23
  Q 14.52 134.37 9.13 143.62
  Q 3.35 137.82 0.00 129.34
  L 0.00 126.70
  L 0.44 126.54
  Q 0.78 126.41 0.90 126.06
  Q 3.49 118.74 8.58 112.76
  Q 9.48 112.79 9.34 112.38
  Z"
/>
<path fill="#a2603a" d="
  M 145.71 112.71
  Q 151.56 115.64 155.02 121.22
  L 154.76 121.60
  Q 154.45 122.08 154.05 121.68
  L 153.71 121.33
  Q 153.24 120.87 152.91 121.43
  L 150.18 126.07
  Q 150.02 126.35 149.69 126.31
  L 146.26 125.86
  Q 145.81 125.80 145.77 126.26
  Q 145.64 127.79 143.90 128.03
  Q 143.42 128.10 143.15 128.50
  Q 142.41 129.62 141.12 129.07
  Q 140.60 128.85 140.45 129.40
  L 139.28 133.61
  Q 138.43 133.52 137.82 132.61
  Q 137.45 132.06 137.14 132.65
  L 136.31 134.23
  Q 136.21 133.03 134.48 133.76
  Q 134.04 133.95 134.01 133.46
  L 133.94 131.97
  Q 134.46 131.27 134.56 130.53
  Q 134.63 130.05 135.00 129.76
  Q 136.14 128.84 135.38 127.36
  Q 135.15 126.90 135.57 126.60
  C 138.29 124.64 136.81 120.66 140.74 118.24
  Q 142.52 117.83 143.49 116.78
  Q 143.83 116.42 144.31 116.30
  Q 147.31 115.53 145.71 112.71
  Z"
/>
<path fill="#365b73" d="
  M 89.49 113.01
  L 89.51 122.99
  Q 83.98 124.26 79.17 127.81
  Q 78.77 128.11 78.43 127.74
  L 71.78 120.66
  Q 71.87 120.59 71.97 120.52
  Q 79.97 114.44 89.49 113.01
  Z"
/>
<path fill="#85643f" d="
  M 140.74 118.24
  C 136.81 120.66 138.29 124.64 135.57 126.60
  Q 135.15 126.90 135.38 127.36
  Q 136.14 128.84 135.00 129.76
  Q 134.63 130.05 134.56 130.53
  Q 134.46 131.27 133.94 131.97
  L 133.10 131.98
  Q 131.78 129.58 133.85 125.93
  A 0.76 0.76 0.0 0 0 133.70 124.99
  L 132.45 123.85
  Q 132.05 123.49 132.14 122.96
  Q 132.37 121.61 131.00 121.30
  L 131.59 119.78
  Q 131.57 118.91 132.87 119.23
  Q 133.41 119.35 133.74 118.91
  Q 135.75 116.17 138.78 117.71
  Q 139.13 117.89 138.75 118.01
  Q 138.61 118.04 138.49 118.09
  A 0.06 0.06 0.0 0 0 138.51 118.20
  L 140.74 118.24
  Z"
/>
<path fill="#df6c35" d="
  M 195.26 129.08
  L 195.77 150.17
  L 182.59 133.33
  A 0.44 0.44 0.0 0 0 181.81 133.49
  L 180.79 137.59
  Q 181.33 128.78 179.15 120.85
  L 179.39 118.09
  Q 179.46 117.26 180.12 117.76
  L 195.26 129.08
  Z"
/>
<path fill="#3e477f" d="
  M 71.78 120.66
  L 78.43 127.74
  Q 78.77 128.11 79.17 127.81
  Q 83.98 124.26 89.51 122.99
  Q 89.17 135.28 91.22 146.80
  Q 90.26 143.26 87.51 143.72
  Q 86.97 143.81 86.57 143.44
  Q 83.02 140.16 79.24 141.33
  Q 75.55 131.22 65.44 126.30
  Q 67.97 122.96 71.78 120.66
  Z"
/>
<path fill="#b64c37" d="
  M 155.02 121.22
  Q 158.06 126.38 158.36 132.81
  L 155.51 131.41
  Q 155.02 131.17 154.68 131.59
  Q 153.33 133.29 151.40 132.22
  Q 150.68 131.81 150.49 132.62
  Q 150.17 134.02 148.52 133.44
  A 0.48 0.48 0.0 0 0 147.88 133.87
  Q 147.79 135.62 146.25 136.11
  Q 145.75 136.27 145.75 136.79
  L 145.75 138.01
  A 0.60 0.60 0.0 0 1 145.06 138.60
  Q 144.38 138.49 143.94 139.06
  Q 143.80 139.23 143.68 139.05
  L 143.30 138.49
  A 0.12 0.12 0.0 0 0 143.10 138.48
  Q 143.02 138.59 143.05 138.79
  Q 143.05 138.83 142.66 138.87
  Q 141.76 138.96 141.73 138.11
  Q 141.71 137.63 141.30 137.39
  Q 140.43 136.89 140.02 135.50
  Q 139.43 134.61 139.28 133.61
  L 140.45 129.40
  Q 140.60 128.85 141.12 129.07
  Q 142.41 129.62 143.15 128.50
  Q 143.42 128.10 143.90 128.03
  Q 145.64 127.79 145.77 126.26
  Q 145.81 125.80 146.26 125.86
  L 149.69 126.31
  Q 150.02 126.35 150.18 126.07
  L 152.91 121.43
  Q 153.24 120.87 153.71 121.33
  L 154.05 121.68
  Q 154.45 122.08 154.76 121.60
  L 155.02 121.22
  Z"
/>
<path fill="#674944" d="
  M 131.00 121.30
  Q 132.37 121.61 132.14 122.96
  Q 132.05 123.49 132.45 123.85
  L 133.70 124.99
  A 0.76 0.76 0.0 0 1 133.85 125.93
  Q 131.78 129.58 133.10 131.98
  Q 132.13 132.43 132.06 133.07
  Q 132.01 133.49 131.74 133.83
  Q 129.90 136.21 127.02 134.77
  Q 126.52 134.52 126.52 133.97
  L 126.52 132.99
  Q 126.52 132.71 126.24 132.71
  Q 126.09 132.71 125.96 132.78
  Q 125.75 132.89 125.67 133.31
  Q 124.89 137.36 124.57 141.48
  C 124.41 143.62 123.31 145.73 123.24 148.10
  A 1.31 1.28 26.0 0 0 123.56 149.00
  Q 124.83 150.46 126.06 151.86
  Q 126.97 152.89 127.06 153.76
  Q 127.25 155.43 125.45 155.71
  L 122.86 154.57
  L 124.59 154.14
  Q 125.20 153.99 124.91 153.43
  L 121.81 147.47
  Q 121.56 147.00 121.03 147.00
  L 120.47 147.00
  Q 120.00 147.00 119.59 146.77
  Q 118.01 145.87 118.36 144.35
  Q 118.51 143.72 119.10 143.98
  L 120.15 144.43
  Q 120.72 144.67 120.59 144.07
  C 120.24 142.32 120.90 140.95 120.82 139.34
  Q 120.59 134.53 122.50 130.03
  Q 122.69 129.58 122.56 129.12
  L 122.22 127.96
  Q 122.84 126.65 122.79 125.51
  Q 122.76 124.95 123.32 124.99
  L 124.11 125.05
  A 0.67 0.66 -80.3 0 0 124.81 124.55
  Q 125.29 122.67 127.27 122.55
  Q 128.00 122.51 128.00 123.24
  L 128.00 123.68
  Q 128.00 123.94 128.24 123.84
  Q 128.43 123.77 128.60 123.71
  Q 128.81 123.63 128.86 123.41
  Q 129.18 121.76 131.00 121.30
  Z"
/>
<path fill="#e78139" d="
  M 246.95 143.42
  Q 239.83 151.49 229.58 154.33
  Q 229.08 154.47 228.82 154.91
  Q 228.70 155.12 228.62 155.35
  Q 224.17 150.21 218.38 147.38
  Q 217.87 144.84 217.81 142.69
  Q 217.64 136.55 217.79 122.09
  C 230.27 125.83 240.51 131.70 246.95 143.42
  Z"
/>
<path fill="#4f414f" d="
  M 122.22 127.96
  L 122.56 129.12
  Q 122.69 129.58 122.50 130.03
  Q 120.59 134.53 120.82 139.34
  C 120.90 140.95 120.24 142.32 120.59 144.07
  Q 120.72 144.67 120.15 144.43
  L 119.10 143.98
  Q 118.51 143.72 118.36 144.35
  Q 118.01 145.87 119.59 146.77
  Q 120.00 147.00 120.47 147.00
  L 121.03 147.00
  Q 121.56 147.00 121.81 147.47
  L 124.91 153.43
  Q 125.20 153.99 124.59 154.14
  L 122.86 154.57
  Q 110.29 146.39 111.24 130.59
  Q 111.89 130.43 111.99 128.67
  Q 112.03 128.00 112.70 128.00
  L 116.46 128.00
  Q 116.93 128.00 116.96 127.53
  L 117.08 126.00
  A 0.47 0.47 0.0 0 1 117.89 125.71
  Q 119.72 127.60 122.22 127.96
  Z
  M 117.75 146.95
  L 116.91 145.58
  A 0.90 0.56 -84.4 0 0 116.00 146.76
  Q 117.66 150.92 121.65 152.99
  A 0.84 0.84 0.0 0 0 122.84 152.01
  Q 121.84 148.56 118.53 147.55
  Q 118.03 147.40 117.75 146.95
  Z"
/>
<path fill="#4d73bb" d="
  M 22.47 129.23
  Q 25.62 133.77 29.79 136.23
  Q 37.00 140.50 44.52 142.35
  Q 35.81 147.33 28.17 155.01
  L 20.33 152.62
  L 8.82 144.15
  Q 9.05 144.17 9.13 143.62
  Q 14.52 134.37 22.47 129.23
  Z"
/>
<path fill="#f4ba53" d="
  M 256.00 129.19
  L 256.00 133.29
  Q 255.47 145.32 252.22 158.01
  L 247.42 143.51
  Q 252.33 136.88 256.00 129.19
  Z"
/>
<path fill="#8095cb" d="
  M 0.00 129.34
  Q 3.35 137.82 9.13 143.62
  Q 9.05 144.17 8.82 144.15
  Q 5.61 150.96 4.21 159.96
  Q 0.43 145.85 0.00 132.17
  L 0.00 129.34
  Z"
/>
<path fill="#be2538" d="
  M 158.36 132.81
  Q 158.07 151.90 139.74 157.02
  L 138.56 142.70
  Q 138.52 142.20 138.18 141.82
  Q 137.03 140.50 137.97 139.14
  A 0.15 0.15 0.0 0 1 138.25 139.22
  Q 138.25 139.36 138.25 139.51
  A 0.25 0.12 -60.5 0 0 138.57 139.28
  Q 138.86 137.21 140.02 135.50
  Q 140.43 136.89 141.30 137.39
  Q 141.71 137.63 141.73 138.11
  Q 141.76 138.96 142.66 138.87
  Q 143.05 138.83 143.05 138.79
  Q 143.02 138.59 143.10 138.48
  A 0.12 0.12 0.0 0 1 143.30 138.49
  L 143.68 139.05
  Q 143.80 139.23 143.94 139.06
  Q 144.38 138.49 145.06 138.60
  A 0.60 0.60 0.0 0 0 145.75 138.01
  L 145.75 136.79
  Q 145.75 136.27 146.25 136.11
  Q 147.79 135.62 147.88 133.87
  A 0.48 0.48 0.0 0 1 148.52 133.44
  Q 150.17 134.02 150.49 132.62
  Q 150.68 131.81 151.40 132.22
  Q 153.33 133.29 154.68 131.59
  Q 155.02 131.17 155.51 131.41
  L 158.36 132.81
  Z"
/>
<path fill="#7a383f" d="
  M 133.10 131.98
  L 133.94 131.97
  L 134.01 133.46
  Q 134.04 133.95 134.48 133.76
  Q 136.21 133.03 136.31 134.23
  L 136.46 136.74
  Q 136.49 137.26 135.97 137.23
  Q 135.38 137.20 135.15 137.62
  Q 134.99 137.91 135.17 138.76
  Q 135.48 140.24 134.17 140.93
  Q 133.82 141.12 133.77 141.52
  L 131.60 157.38
  L 125.45 155.71
  Q 127.25 155.43 127.06 153.76
  Q 126.97 152.89 126.06 151.86
  Q 124.83 150.46 123.56 149.00
  A 1.31 1.28 26.0 0 1 123.24 148.10
  C 123.31 145.73 124.41 143.62 124.57 141.48
  Q 124.89 137.36 125.67 133.31
  Q 125.75 132.89 125.96 132.78
  Q 126.09 132.71 126.24 132.71
  Q 126.52 132.71 126.52 132.99
  L 126.52 133.97
  Q 126.52 134.52 127.02 134.77
  Q 129.90 136.21 131.74 133.83
  Q 132.01 133.49 132.06 133.07
  Q 132.13 132.43 133.10 131.98
  Z"
/>
<path fill="#92343b" d="
  M 139.28 133.61
  Q 139.43 134.61 140.02 135.50
  Q 138.86 137.21 138.57 139.28
  A 0.25 0.12 -60.5 0 1 138.25 139.51
  Q 138.25 139.36 138.25 139.22
  A 0.15 0.15 0.0 0 0 137.97 139.14
  Q 137.03 140.50 138.18 141.82
  Q 138.52 142.20 138.56 142.70
  L 139.74 157.02
  L 131.60 157.38
  L 133.77 141.52
  Q 133.82 141.12 134.17 140.93
  Q 135.48 140.24 135.17 138.76
  Q 134.99 137.91 135.15 137.62
  Q 135.38 137.20 135.97 137.23
  Q 136.49 137.26 136.46 136.74
  L 136.31 134.23
  L 137.14 132.65
  Q 137.45 132.06 137.82 132.61
  Q 138.43 133.52 139.28 133.61
  Z"
/>
<path fill="#e24034" d="
  M 195.77 150.17
  Q 198.50 170.61 216.77 176.97
  L 218.09 180.28
  L 191.84 177.14
  L 180.33 149.28
  A 0.79 0.79 0.0 0 0 178.86 149.32
  Q 178.61 150.02 177.93 149.94
  Q 180.33 143.89 180.79 137.59
  L 181.81 133.49
  A 0.44 0.44 0.0 0 1 182.59 133.33
  L 195.77 150.17
  Z"
/>
<path fill="#492b8a" d="
  M 91.22 146.80
  Q 94.92 160.67 106.53 169.72
  L 103.55 171.04
  Q 99.68 171.84 94.81 172.81
  Q 93.68 173.04 93.71 174.26
  L 93.47 173.56
  A 0.61 0.59 76.9 0 0 92.83 173.15
  Q 80.38 174.63 67.96 176.23
  Q 66.32 176.44 64.43 176.18
  Q 65.15 175.91 65.01 175.51
  Q 84.21 164.22 79.24 141.33
  Q 83.02 140.16 86.57 143.44
  Q 86.97 143.81 87.51 143.72
  Q 90.26 143.26 91.22 146.80
  Z"
/>
<path fill="#3e4ca4" d="
  M 44.52 142.35
  C 47.85 143.26 57.51 145.90 58.16 149.14
  C 61.24 164.64 35.23 157.85 28.17 155.01
  Q 35.81 147.33 44.52 142.35
  Z"
/>
<path fill="#eb8e4b" d="
  M 246.95 143.42
  Q 247.25 143.54 247.42 143.51
  L 252.22 158.01
  Q 248.96 173.94 239.59 190.19
  Q 241.43 176.30 236.10 166.28
  L 236.01 159.26
  A 2.17 2.16 -4.1 0 0 233.56 157.15
  Q 228.51 157.83 223.90 155.47
  Q 228.34 156.36 228.62 155.35
  Q 228.70 155.12 228.82 154.91
  Q 229.08 154.47 229.58 154.33
  Q 239.83 151.49 246.95 143.42
  Z"
/>
<path fill="#5e6cb6" d="
  M 8.82 144.15
  L 20.33 152.62
  Q 19.23 161.16 19.89 170.06
  Q 19.34 169.59 19.29 169.03
  A 0.44 0.44 0.0 0 0 18.43 168.96
  L 17.11 174.33
  L 5.27 163.77
  L 4.21 159.96
  Q 5.61 150.96 8.82 144.15
  Z"
/>
<path fill="#292725" d="
  M 118.53 147.55
  Q 121.84 148.56 122.84 152.01
  A 0.84 0.84 0.0 0 1 121.65 152.99
  Q 117.66 150.92 116.00 146.76
  A 0.90 0.56 -84.4 0 1 116.91 145.58
  L 117.75 146.95
  Q 118.03 147.40 118.53 147.55
  Z"
/>
<path fill="#e44e38" d="
  M 228.62 155.35
  Q 228.34 156.36 223.90 155.47
  Q 219.54 153.29 218.38 147.38
  Q 224.17 150.21 228.62 155.35
  Z"
/>
<path fill="#dd3432" d="
  M 191.84 177.14
  L 201.58 201.44
  L 176.76 191.53
  L 174.48 173.25
  A 1.39 1.39 0.0 0 0 173.11 172.03
  L 165.41 171.94
  Q 164.31 171.93 164.87 170.98
  Q 165.17 170.47 164.47 170.15
  Q 164.11 169.99 163.80 170.23
  Q 163.20 170.69 162.54 170.19
  Q 172.97 162.28 177.93 149.94
  Q 178.61 150.02 178.86 149.32
  A 0.79 0.79 0.0 0 1 180.33 149.28
  L 191.84 177.14
  Z"
/>
<path fill="#7578b5" d="
  M 5.27 163.77
  L 17.11 174.33
  Q 15.59 181.52 16.72 190.91
  Q 9.28 178.35 5.27 163.77
  Z"
/>
<path fill="#e46844" d="
  M 236.10 166.28
  Q 241.43 176.30 239.59 190.19
  L 236.76 195.10
  L 223.46 201.41
  Q 223.49 189.18 218.09 180.28
  L 216.77 176.97
  Q 222.98 178.76 233.00 179.19
  C 235.45 179.29 235.97 178.79 235.97 176.30
  Q 235.96 171.25 236.10 166.28
  Z"
/>
<path fill="#5c51a6" d="
  M 19.89 170.06
  Q 19.35 172.05 20.01 173.52
  Q 20.22 173.99 20.70 174.19
  Q 30.05 177.96 39.99 179.10
  L 38.54 179.61
  Q 38.11 179.76 37.90 180.16
  Q 32.91 189.90 32.87 201.16
  Q 33.21 200.72 32.69 201.17
  Q 26.05 199.28 20.85 194.85
  Q 20.51 194.56 20.06 194.63
  L 18.93 194.80
  L 16.72 190.91
  Q 15.59 181.52 17.11 174.33
  L 18.43 168.96
  A 0.44 0.44 0.0 0 1 19.29 169.03
  Q 19.34 169.59 19.89 170.06
  Z"
/>
<path fill="#782e58" d="
  M 106.53 169.72
  Q 115.27 176.48 126.75 178.68
  L 120.82 184.18
  L 111.13 191.84
  Q 111.13 191.72 111.13 191.59
  Q 106.50 181.95 103.55 171.04
  L 106.53 169.72
  Z"
/>
<path fill="#d42832" d="
  M 176.76 191.53
  Q 178.73 204.45 180.04 216.25
  Q 180.12 216.94 179.60 217.87
  L 158.80 202.18
  L 162.58 172.95
  Q 162.64 172.52 162.33 172.21
  L 161.26 171.12
  L 162.54 170.19
  Q 163.20 170.69 163.80 170.23
  Q 164.11 169.99 164.47 170.15
  Q 165.17 170.47 164.87 170.98
  Q 164.31 171.93 165.41 171.94
  L 173.11 172.03
  A 1.39 1.39 0.0 0 1 174.48 173.25
  L 176.76 191.53
  Z"
/>
<path fill="#6e266a" d="
  M 103.55 171.04
  Q 106.50 181.95 111.13 191.59
  L 97.51 201.99
  L 95.21 185.06
  L 93.71 174.26
  Q 93.68 173.04 94.81 172.81
  Q 99.68 171.84 103.55 171.04
  Z"
/>
<path fill="#be2538" d="
  M 161.26 171.12
  L 162.33 172.21
  Q 162.64 172.52 162.58 172.95
  L 158.80 202.18
  L 154.95 228.00
  Q 154.47 228.00 154.04 227.45
  Q 146.59 218.02 139.30 208.45
  Q 138.93 207.97 138.54 208.00
  L 138.53 206.55
  L 151.17 176.47
  L 161.26 171.12
  Z"
/>
<path fill="#56258f" d="
  M 93.71 174.26
  L 95.21 185.06
  L 79.04 191.63
  L 54.61 201.60
  L 63.63 179.06
  A 1.96 1.88 -38.6 0 0 63.75 178.16
  Q 63.58 176.62 64.43 176.18
  Q 66.32 176.44 67.96 176.23
  Q 80.38 174.63 92.83 173.15
  A 0.61 0.59 76.9 0 1 93.47 173.56
  L 93.71 174.26
  Z"
/>
<path fill="#593c9b" d="
  M 65.01 175.51
  Q 65.15 175.91 64.43 176.18
  Q 63.58 176.62 63.75 178.16
  A 1.96 1.88 -38.6 0 1 63.63 179.06
  L 54.61 201.60
  Q 43.83 204.19 32.87 201.16
  Q 32.91 189.90 37.90 180.16
  Q 38.11 179.76 38.54 179.61
  L 39.99 179.10
  Q 53.12 180.88 65.01 175.51
  Z"
/>
<path fill="#ab273d" d="
  M 151.17 176.47
  L 138.53 206.55
  Q 137.82 206.56 137.56 206.19
  Q 133.10 199.99 127.91 194.20
  Q 128.03 194.05 128.04 193.69
  Q 133.93 187.03 138.40 179.32
  Q 144.25 178.88 151.17 176.47
  Z"
/>
<path fill="#e44e38" d="
  M 218.09 180.28
  Q 223.49 189.18 223.46 201.41
  L 220.32 216.35
  L 216.48 220.28
  L 201.74 223.23
  Q 201.29 223.32 201.12 223.75
  Q 198.29 230.88 193.47 237.83
  L 190.06 239.76
  L 174.44 239.15
  L 174.53 237.98
  Q 179.86 229.15 179.96 218.49
  Q 180.70 218.47 181.12 218.68
  Q 190.02 223.11 200.11 223.18
  A 1.67 1.66 5.6 0 0 201.76 221.83
  Q 203.95 210.67 201.58 201.44
  L 191.84 177.14
  L 218.09 180.28
  Z"
/>
<path fill="#a7264a" d="
  M 126.75 178.68
  Q 132.15 179.78 138.40 179.32
  Q 133.93 187.03 128.04 193.69
  L 120.82 184.18
  L 126.75 178.68
  Z"
/>
<path fill="#92284a" d="
  M 120.82 184.18
  L 128.04 193.69
  Q 128.03 194.05 127.91 194.20
  L 117.66 207.52
  Q 117.62 207.50 117.59 207.49
  L 111.13 191.84
  L 120.82 184.18
  Z"
/>
<path fill="#681d8c" d="
  M 95.21 185.06
  L 97.51 201.99
  Q 97.14 202.81 97.07 202.30
  L 76.78 217.77
  Q 76.21 216.62 76.31 215.81
  Q 77.65 204.17 79.04 191.63
  L 95.21 185.06
  Z"
/>
<path fill="#703296" d="
  M 79.04 191.63
  Q 77.65 204.17 76.31 215.81
  Q 76.21 216.62 76.78 217.77
  L 75.73 218.34
  Q 66.12 223.53 55.57 223.34
  Q 55.07 222.96 54.87 222.67
  Q 54.83 222.62 54.64 221.80
  Q 52.25 211.56 54.61 201.60
  L 79.04 191.63
  Z"
/>
<path fill="#88226e" d="
  M 111.13 191.59
  Q 111.13 191.72 111.13 191.84
  L 117.59 207.49
  Q 110.08 217.53 102.69 226.94
  Q 102.39 227.32 101.29 228.00
  L 97.07 202.30
  Q 97.14 202.81 97.51 201.99
  L 111.13 191.59
  Z"
/>
<path fill="#e24034" d="
  M 176.76 191.53
  L 201.58 201.44
  Q 203.95 210.67 201.76 221.83
  A 1.67 1.66 5.6 0 1 200.11 223.18
  Q 190.02 223.11 181.12 218.68
  Q 180.70 218.47 179.96 218.49
  Q 179.98 217.71 179.60 217.87
  Q 180.12 216.94 180.04 216.25
  Q 178.73 204.45 176.76 191.53
  Z"
/>
<path fill="#a7264a" d="
  M 127.91 194.20
  Q 133.10 199.99 137.56 206.19
  Q 137.82 206.56 138.53 206.55
  L 138.54 208.00
  L 128.17 232.12
  L 117.66 207.52
  L 127.91 194.20
  Z"
/>
<path fill="#7d68ad" d="
  M 32.69 201.17
  Q 33.54 208.87 36.28 217.04
  Q 26.00 206.72 18.93 194.80
  L 20.06 194.63
  Q 20.51 194.56 20.85 194.85
  Q 26.05 199.28 32.69 201.17
  Z"
/>
<path fill="#e98163" d="
  M 236.76 195.10
  Q 229.95 206.81 220.32 216.35
  L 223.46 201.41
  L 236.76 195.10
  Z"
/>
<path fill="#71459e" d="
  M 32.87 201.16
  Q 43.83 204.19 54.61 201.60
  Q 52.25 211.56 54.64 221.80
  Q 54.83 222.62 54.87 222.67
  Q 55.07 222.96 55.57 223.34
  Q 55.30 223.29 54.77 223.69
  L 39.20 219.92
  L 36.28 217.04
  Q 33.54 208.87 32.69 201.17
  Q 33.21 200.72 32.87 201.16
  Z"
/>
<path fill="#8c3094" d="
  M 97.07 202.30
  L 101.29 228.00
  Q 101.21 228.55 101.09 228.56
  Q 92.97 236.31 82.83 238.77
  C 78.49 235.88 76.46 224.08 76.23 219.26
  Q 76.22 219.02 75.73 218.34
  L 76.78 217.77
  L 97.07 202.30
  Z"
/>
<path fill="#dd3432" d="
  M 158.80 202.18
  L 179.60 217.87
  Q 179.98 217.71 179.96 218.49
  Q 179.86 229.15 174.53 237.98
  L 173.60 238.47
  Q 173.18 238.70 172.72 238.56
  Q 162.81 235.69 154.96 228.35
  Q 155.12 228.70 154.95 228.00
  L 158.80 202.18
  Z"
/>
<path fill="#aa3173" d="
  M 117.59 207.49
  Q 117.62 207.50 117.66 207.52
  L 128.17 232.12
  Q 128.22 232.78 128.41 232.37
  Q 127.66 232.59 127.54 232.80
  Q 121.98 241.88 112.55 246.99
  C 106.70 241.55 103.86 236.17 101.09 228.56
  Q 101.21 228.55 101.29 228.00
  Q 102.39 227.32 102.69 226.94
  Q 110.08 217.53 117.59 207.49
  Z"
/>
<path fill="#bf384d" d="
  M 138.54 208.00
  Q 138.93 207.97 139.30 208.45
  Q 146.59 218.02 154.04 227.45
  Q 154.47 228.00 154.95 228.00
  Q 155.12 228.70 154.96 228.35
  Q 152.13 239.17 143.65 247.04
  Q 143.76 246.99 143.87 246.94
  Q 134.06 241.69 128.41 232.37
  Q 128.22 232.78 128.17 232.12
  L 138.54 208.00
  Z"
/>
<path fill="#94449b" d="
  M 75.73 218.34
  Q 76.22 219.02 76.23 219.26
  C 76.46 224.08 78.49 235.88 82.83 238.77
  Q 81.56 239.20 82.20 239.23
  L 65.87 239.66
  Q 63.95 239.07 62.40 237.66
  L 54.77 223.69
  Q 55.30 223.29 55.57 223.34
  Q 66.12 223.53 75.73 218.34
  Z"
/>
<path fill="#af66ab" d="
  M 54.77 223.69
  L 62.40 237.66
  Q 49.56 230.42 39.20 219.92
  L 54.77 223.69
  Z"
/>
<path fill="#e98163" d="
  M 216.48 220.28
  Q 206.09 230.53 193.47 237.83
  Q 198.29 230.88 201.12 223.75
  Q 201.29 223.32 201.74 223.23
  L 216.48 220.28
  Z"
/>
<path fill="#d64c45" d="
  M 154.96 228.35
  Q 162.81 235.69 172.72 238.56
  Q 173.18 238.70 173.60 238.47
  L 174.53 237.98
  L 174.44 239.15
  L 164.13 250.59
  L 159.66 251.88
  Q 151.00 250.33 143.65 247.04
  Q 152.13 239.17 154.96 228.35
  Z"
/>
<path fill="#ac429a" d="
  M 101.09 228.56
  C 103.86 236.17 106.70 241.55 112.55 246.99
  Q 112.58 247.04 112.62 247.09
  Q 105.45 250.50 96.39 251.87
  L 91.49 250.58
  Q 91.86 250.40 92.03 250.17
  Q 92.31 249.76 91.92 249.45
  Q 86.24 244.94 82.20 239.23
  Q 81.56 239.20 82.83 238.77
  Q 92.97 236.31 101.09 228.56
  Z"
/>
<path fill="#bb4574" d="
  M 128.41 232.37
  Q 134.06 241.69 143.87 246.94
  Q 139.05 251.50 133.22 254.00
  C 131.72 254.65 129.36 254.42 128.37 256.00
  L 126.20 256.00
  C 126.23 255.35 125.92 254.90 125.28 254.67
  Q 118.00 252.07 112.62 247.09
  Q 112.58 247.04 112.55 246.99
  Q 121.98 241.88 127.54 232.80
  Q 127.66 232.59 128.41 232.37
  Z"
/>
<path fill="#e98163" d="
  M 174.44 239.15
  L 190.06 239.76
  Q 178.09 246.81 164.13 250.59
  L 174.44 239.15
  Z"
/>
<path fill="#af66ab" d="
  M 82.20 239.23
  Q 86.24 244.94 91.92 249.45
  Q 92.31 249.76 92.03 250.17
  Q 91.86 250.40 91.49 250.58
  Q 78.46 246.99 65.87 239.66
  L 82.20 239.23
  Z"
/>
<path fill="#bd629a" d="
  M 112.62 247.09
  Q 118.00 252.07 125.28 254.67
  C 125.92 254.90 126.23 255.35 126.20 256.00
  L 122.71 256.00
  Q 109.66 255.33 96.39 251.87
  Q 105.45 250.50 112.62 247.09
  Z"
/>
<path fill="#d97170" d="
  M 143.87 246.94
  Q 143.76 246.99 143.65 247.04
  Q 151.00 250.33 159.66 251.88
  Q 146.34 255.34 133.42 256.00
  L 128.37 256.00
  C 129.36 254.42 131.72 254.65 133.22 254.00
  Q 139.05 251.50 143.87 246.94
  Z"
/>
</svg>
